<?xml version="1.0" standalone="no"?>
<!DOCTYPE svg PUBLIC "-//W3C//DTD SVG 1.1//EN" "http://www.w3.org/Graphics/SVG/1.1/DTD/svg11.dtd" >
<svg xmlns="http://www.w3.org/2000/svg">
<metadata>Generated by IcoMoon</metadata>
<defs>
<font id="icomoon" horiz-adv-x="1024">
<font-face units-per-em="1024" ascent="960" descent="-64" />
<missing-glyph horiz-adv-x="1024" />
<glyph unicode="&#x20;" horiz-adv-x="512" d="" />
<glyph unicode="&#xe900;" glyph-name="1" d="M1016.040 683.573c-33.030 134.034-159.799 246.665-300.676 267.708-16.535 3.001-41.963 6.998-72.072 6.998-82.665 0-198.176-31.011-279.387-178.618-34.842-53.776-56.561-113.134-64.583-176.446-1.578-12.508 6.884-24.065 19.291-26.309 12.438-2.275 24.394 5.583 27.312 17.837 14.835 62.288 34.577 116.299 58.712 160.556 61.254 93.616 159.605 154.072 250.794 154.072 55.045 0 101.629-22.681 134.708-65.598 71.458-92.706 76.815-272.902 15.1-507.396-2.561-9.701 1.27-19.967 9.579-25.633 4.036-2.757 8.698-4.108 13.358-4.108 4.917 0 9.836 1.516 14.006 4.568 195.821 143.277 192.973 294.798 173.856 372.371zM504.854 129.903c-5.984-18.881-11.873-31.123-11.873-31.123-9.619-23.903-36.799-35.479-60.69-25.85-23.903 9.62-35.468 36.811-25.85 60.702 0.635 1.578 1.353 3.124 2.151 4.611 0 0 8.822 19.905 13.155 42.998-24.915 14.25-50.62 28.194-76.038 41.378-12.099-9.978-19.886-19.568-19.886-19.568-16.207-20.029-45.577-23.123-65.607-6.915-20.029 16.196-23.123 45.577-6.917 65.607 0.010 0 0.010 0.010 0.021 0.021 0 0 1.609 1.578 4.17 4.487-55.076 25.746-97.337 42.588-104.916 41.707-18.635-4.917-64.349-90.912-53.582-105.234 11.085-14.732 374.14-250.434 408.43-241.91 22.917 15.673 70.546 62.638 81.17 80.206 3.547 21.084-31.861 53.58-83.739 88.885zM525.713 384.836c7.55 0 14.937 1.454 21.955 4.303 30.715 12.51 45.159 48.601 32.188 80.462-9.743 23.943-32.219 39.411-57.258 39.411-7.562 0-14.949-1.454-21.965-4.313-14.916-6.065-26.462-17.806-32.537-33.050-6.044-15.162-5.92-32.006 0.358-47.402 9.734-23.932 32.221-39.411 57.26-39.411zM277.306 217.383c8.257-6.69 20.399-5.45 27.12 2.797 0.573 0.707 58.898 71.222 112.692 46.102 65.751-30.694 17.171-140.653 16.279-142.629-4.414-9.693-0.143-21.124 9.548-25.541 2.592-1.187 5.328-1.752 8.001-1.752 7.314 0 14.322 4.191 17.549 11.298 18.164 39.822 35.857 113.769 3.155 161.727l28.123 49.42c9.825-2.602 19.578-3.994 29.207-3.994 9.252 0 18.41 1.208 27.436 3.618 50.095 13.379 76.693 59.676 77.798 61.643 5.225 9.281 1.946 21.053-7.325 26.278-9.292 5.225-21.044 1.946-26.28-7.335-0.194-0.339-20.1-34.229-54.143-43.325-20.101-5.339-41.993-1.098-65.116 12.612-27.312 16.207-43.777 35.642-48.959 57.76-7.541 32.179 10.94 61.182 11.075 61.376 5.901 8.872 3.473 20.848-5.399 26.739-8.861 5.87-20.838 3.473-26.729-5.399-1.138-1.711-27.703-42.466-16.637-90.954 5.757-25.202 20.346-47.372 43.335-66.212l-26.82-43.049c-72.083 14.506-133.912-60.567-136.758-64.102-6.679-8.249-5.409-20.368 2.848-27.078zM80.218 346.192l0.083 0.583c2.459 16.957 7.56 29.23 11.668 39.084 5.593 13.42 9.619 23.123 3.922 35.704-8.533 18.84-31.493 32.506-54.585 32.506-3.248 0-6.464-0.267-9.569-0.809-12.827-2.224-23.113-9.027-28.204-18.645-4.673-8.82-4.712-19.26-0.122-29.381 9.25-20.428 41.031-48.746 76.242-58.876l0.564-0.167zM697.855 111.369c-6.371 15.849-22.568 26.913-39.38 26.913-3.597 0-7.132-0.511-10.522-1.506-11.207-3.297-16.186-11.534-23.101-22.938-5.072-8.39-11.393-18.83-22.139-30.15l-0.327-0.339 0.368-0.306c15.1-12.212 37.936-20.112 58.201-20.112 5.92 0 11.249 0.676 15.816 2.039 9.19 2.704 16.494 8.81 20.561 17.212 4.325 8.923 4.499 19.291 0.523 29.187zM664.294-13.494c-5.411 3.392-10.88 3.852-15.501 3.852-2.642 0-5.44-0.184-8.39-0.358-3.452-0.215-7.029-0.451-10.973-0.451-8.462 0-21.76 0.983-39.504 9.354l-0.563 0.255 0.033-0.625c1.33-33.081 11.648-41.901 28.469-52.474 7.92-4.979 17.735-7.734 27.62-7.734 10.491 0 19.793 3.044 26.187 8.574 5.543 4.795 8.319 11.085 7.817 17.714-0.626 8.225-6.159 16.196-15.195 21.893zM111.647 138.334c-9.846 4.18-17.62 7.48-26.287 7.48-3.309 0-6.588-0.482-10.020-1.466-23.041-6.638-39.277-29.689-36.205-51.408 2.489-17.487 16.556-29.238 35.028-29.238 4.11 0 8.319 0.614 12.5 1.814 21.475 6.189 52.331 30.643 64.768 59.378l0.236 0.554-0.583 0.122c-17.267 3.361-29.558 8.576-39.437 12.765z" />
<glyph unicode="&#xe901;" glyph-name="2" d="M899.824 447.656c-52.26 10.778-97.859 26.067-138.118 44.49l6.661 12.168c1.402 2.806-3.325 7.736-10.764 10.935-7.284 3.37-14.478 3.777-16.036 0.984l-6.131-11.275c-8.846 4.603-17.395 9.376-25.663 14.397l7.162 8.549c2.090 2.466-1.529 8.065-8.19 12.586-6.537 4.523-13.57 6.085-15.459 3.619l-7.814-9.376c-7.852 5.348-15.54 10.857-22.824 16.454l13.198 14.137c2.215 2.386-1.109 8.143-7.396 12.993-6.3 4.772-13.154 6.661-15.369 4.366l-12.546-13.492c-8.83 7.736-17.11 15.55-25.036 23.601l14.463 12.497c2.557 2.137 0 8.222-5.665 13.65-5.644 5.348-12.337 7.894-14.817 5.677l-13.151-11.275c-6.663 7.565-12.995 15.381-19 23.195l15.369 10.122c2.793 1.809 1.187 8.222-3.697 14.226-4.774 6.005-11.028 9.298-13.819 7.487l-14.104-9.284c-6.807 10.111-13.196 20.231-19.023 30.422l17.746 11.671c2.747 1.811 1.717 7.565-2.477 12.746-4.185 5.259-9.862 7.894-12.746 6.085l-13.99-9.207c-4.499 8.956-8.741 17.756-12.586 26.645l17.699 9.702c3.007 1.651 2.43 7.485-1.402 12.915-3.608 5.508-9.049 8.64-12.045 6.989l-13.323-7.396c-3.64 9.623-6.83 18.998-9.771 28.284l13.141 3.37c3.29 0.826 4.523 6.503 2.589 12.746-1.936 6.163-6.334 10.529-9.579 9.702l-12.78-3.29c-3.37 12.417-6.188 24.428-8.471 35.851l12.294 3.042c3.325 0.904 4.478 6.583 2.589 12.824-1.968 6.163-6.254 10.529-9.623 9.702l-9.478-2.464c-1.685 10.686-2.964 20.64-3.914 29.687l10.010 2.555c3.29 0.906 4.444 6.583 2.51 12.824-1.888 6.254-6.209 10.529-9.499 9.624l-4.953-1.233c-1.144 20.809-0.521 33.306-0.521 33.306s-225.288-28.852-273.929-73.513c-49.75-45.882-38.735-149.259-69.495-218.743-11.682-26.318-54.441-115.129-64.394-141.943-30.739-82.568 8.695-225.901 23.478-273.682l5.224-20.402c0 0 16.185-4.444 47.127-7.734-6.051-1.797-12.136-3.37-18.050-5.994-73.103-32.901-105.55-118.341-72.493-190.878 33.057-72.619 119.12-104.927 192.189-72.121 73.103 32.899 105.55 118.339 72.448 190.958-8.844 19.498-21.692 35.77-36.891 48.924 18.614 18.172 42.001 28.951 56.206 35.861 91.943-0.669 197.697-1.48 297.251-2.217 14.463-7.238 38.156-16.861 56.32-34.459-46.412-40.873-63.433-107.982-36.549-166.946 33.102-72.619 119.166-104.927 192.185-72.121 73.116 32.899 105.506 118.339 72.527 190.958-11.963 26.227-30.954 46.956-53.569 61.51 18.468 9.535 41.695 11.593 57.032 19 2.137 0 4.446 0 6.368 0 29.403-0.249 46.424 35.272 51.681 48.109 0.545 0.317 1.358 0.578 1.888 0.906 0.009 0.009 43.316 150.57-80.206 175.993zM213.117 17.147c-36.427-16.363-79.277-0.237-95.891 35.851-16.454 36.359-0.249 78.871 36.178 95.314 36.427 16.363 79.403 0.249 95.891-35.929 16.456-36.19 0.329-78.793-36.178-95.236zM814.091 17.147c-36.431-16.363-79.279-0.237-95.893 35.851-16.445 36.359-0.237 78.871 36.222 95.314 36.393 16.363 79.325 0.249 95.848-35.929 16.5-36.19 0.34-78.793-36.176-95.236zM822.652 99.954c9.621-21.046 0.237-45.892-21.058-55.427-21.217-9.535-46.129-0.158-55.756 20.9-9.624 21.126-0.171 45.892 21.046 55.416 21.229 9.543 46.141 0.158 55.767-20.888zM221.714 99.954c9.579-21.046 0.201-45.892-21.046-55.427-21.217-9.535-46.177-0.158-55.799 20.9-9.579 21.126-0.123 45.892 21.092 55.416 21.17 9.543 46.164 0.158 55.754-20.888z" />
<glyph unicode="&#xe902;" glyph-name="3" d="M514.983 54.695c-76.204 0-152.406 0-228.608 0-2.274 0-4.549 0-7.961 0-5.685 1.134-15.923-4.53-15.923 7.93 0 10.194 9.1 6.796 14.785 6.796 6.825 1.132 13.649 0 20.472 0 44.356 0 64.828 14.724 78.478 56.632 3.413 9.062 5.687 19.255 5.687 29.449 0 9.060 4.549 13.592 13.649 13.592 81.889 0 164.916 0 246.805 0 7.963 0 11.372-3.398 12.51-10.196 3.415-19.254 6.825-37.377 17.061-55.498 11.374-21.521 29.573-31.715 53.456-32.849 11.374 0 21.61 0 32.984 0 5.687 0 10.238 0 10.238-7.928 0-6.796-4.549-7.93-10.238-7.93-9.098 0-18.199 0-27.295 0-71.657 0.002-143.31 0.002-216.101 0.002zM511.574 838.499c158.091 0 317.322 0 475.412 0 22.75 0 29.573-6.794 29.573-29.449 0-198.216 0-396.433 0-594.647 0-24.917-6.823-31.715-31.846-31.715-315.049 0-630.096 0-945.144 0-25.021 0-31.846 6.796-31.846 31.715 0 198.216 0 396.433 0 594.647 0 24.919 4.551 29.449 29.571 29.449 158.095 0 316.188 0 474.282 0zM509.298 790.928c-146.721 0-294.575 0-441.294 0-13.649 0-18.201-3.398-18.201-18.122 0-150.644 0-301.287 0-451.931 0-14.726 4.551-18.123 18.201-18.123 293.439 0 586.875 0 879.176 0 13.648 0 18.199 3.398 18.199 18.123 0 150.644 0 301.287 0 451.931 0 14.724-4.549 18.122-18.199 18.122-145.583 0-292.303 0-437.882 0zM470.627 400.159c-27.295 0-27.295 0-20.472 27.183 23.884 82.684 47.769 164.237 71.653 246.921 3.411 11.326 6.825 15.858 20.472 15.858 38.669-1.132 38.669-1.132 27.295-38.511-22.746-75.89-44.356-151.778-67.102-227.665-6.825-23.785-6.825-23.785-31.846-23.785zM338.693 541.741c26.161-10.194 51.183-21.521 77.342-30.581 12.51-4.532 18.197-10.196 17.061-23.785-1.138-29.449 0-29.449-27.297-18.122-38.669 15.858-77.34 31.715-116.011 47.571-21.61 9.062-21.61 9.062-21.61 31.715 0 7.928 2.276 12.46 10.236 15.858 47.769 19.254 95.539 39.643 143.308 58.898 7.961 3.398 10.236 2.264 11.374-6.796 2.274-33.979 2.274-33.979-28.437-46.439-21.608-7.928-42.082-16.99-63.69-26.051-1.138 1.132-1.138-0.002-2.276-2.268zM686.726 542.875c-23.886 10.194-45.496 19.255-65.968 27.183-1.138 0-2.274 0-3.413 1.132-25.021 10.194-31.846 22.653-26.157 49.837 2.274 9.062 5.687 4.53 10.236 2.266 28.433-11.328 56.87-23.785 85.302-35.113 18.199-7.928 36.395-15.858 54.594-22.653 13.648-4.53 10.236-15.858 11.372-24.917s-1.138-14.726-11.372-19.255c-45.496-18.122-89.854-37.379-135.345-55.5-14.787-6.794-13.649-5.664-15.925 10.196-2.276 20.387 3.411 32.847 25.021 38.509 23.884 6.796 45.494 16.99 71.655 28.317z" />
<glyph unicode="&#xe903;" glyph-name="4" d="M561.241-64.481h-90.481c-64.232 0-78.455 27.785-99.986 69.845-3.185 6.221-6.658 13.016-10.623 20.389-30.416 56.677-61.526 126.047-61.526 210.745 0 73.51 13.905 130.541 45.077 184.896 4.218 7.34 8.651 14.841 13.2 22.501 27.464 46.322 58.595 98.825 58.595 156.61 0 66.149-30.821 117.427-31.131 117.937l-1.811 2.727c-15.566 25.25-23.609 53.695-23.609 82.801 0.010 86.53 68.983 154.31 157.047 154.31s157.036-67.78 157.036-154.32c0-25.868-6.426-51.511-18.58-74.161-1.684-3.122-3.453-6.18-5.33-9.163l-1.936-2.919c0.021 0-30.705-51.288-30.705-117.351 0-57.882 31.194-110.523 58.722-156.952 4.496-7.596 8.896-15.022 13.083-22.31 31.175-54.366 45.077-111.48 45.077-185.215 0-84.154-31.101-153.447-61.528-210.138-31.349-58.442-48.415-90.231-110.592-90.231zM515.995 915.666c-64.156 0-114.422-49.061-114.422-111.683 0-21.222 5.848-41.932 16.908-59.885l1.832-2.759c1.886-3.036 37.811-62.155 37.811-140.821 0-69.474-34.306-127.313-64.562-178.356-4.431-7.469-8.769-14.798-12.881-21.968-27.636-48.186-39.429-97.141-39.429-163.694 0-75.247 28.541-138.587 56.454-190.607 4.103-7.64 7.702-14.671 11.005-21.117 20.69-40.429 23.865-46.64 62.036-46.64h90.483c35.562 0 42.391 10.621 72.656 67.034 28.309 52.745 56.849 116.009 56.849 190.713 0 65.883-12.164 116.468-39.429 164.015-4.081 7.116-8.383 14.372-12.773 21.787-30.311 51.148-64.67 109.126-64.67 178.674 0 78.657 35.914 137.85 37.448 140.331l2.034 3.089c1.067 1.704 2.345 3.921 3.56 6.19 8.841 16.46 13.506 35.136 13.506 53.994 0.003 62.641-50.258 111.702-114.417 111.702zM430.766 649.321h170.458v-42.615h-170.458v42.615zM430.766 574.744h170.458v-42.615h-170.458v42.615zM281.612 95.323h-62.454c-47.537 0-59.023 22.437-73.563 50.839-2.13 4.168-4.453 8.695-7.096 13.618-19.686 36.682-42.285 86.348-42.285 145.329 0 50.829 9.652 90.322 31.301 128.069 2.856 4.976 5.861 10.046 8.939 15.235 18.941 31.94 38.534 64.967 38.534 102.010 0 42.465-19.762 75.535-19.975 75.865l-1.088 1.61c-11.291 18.303-17.068 38.726-17.068 59.639 0.010 62.208 49.551 110.937 112.791 110.937s112.781-48.731 112.781-110.949c0-18.569-4.622-36.989-13.35-53.269-1.203-2.227-2.462-4.421-3.804-6.551l-1.438-2.173c0.022 0-19.528-32.984-19.528-75.226 0-21.617 6.756-43.852 21.894-72.084l-37.555-20.147c-12.551 23.396-26.944 55.026-26.944 92.218 0 54.952 25.196 96.481 26.272 98.218l1.514 2.29c0.5 0.821 1.301 2.194 2.045 3.591 5.496 10.238 8.278 21.382 8.278 33.101 0 38.354-30.821 68.366-70.166 68.366s-70.166-30.012-70.166-68.323c0-13.020 3.579-25.708 10.365-36.713l1.118-1.673c1.428-2.301 26.634-43.776 26.634-98.739 0-48.731-24.662-90.323-44.491-123.744-2.962-5.007-5.871-9.908-8.628-14.702-17.985-31.344-25.655-63.304-25.655-106.857 0-49.19 18.813-90.868 37.223-125.16 2.792-5.201 5.242-9.984 7.481-14.372 13.626-26.595 14.159-27.638 35.625-27.638h62.454v-42.616zM196.383 564.090h106.537v-42.615h-106.537v42.615zM196.383 628.013h106.537v-42.615h-106.537v42.615zM804.136 95.323h-64.412v42.615h64.412c21.48 0 22.001 1.043 35.627 27.648 2.235 4.39 4.689 9.161 7.481 14.372 18.41 34.295 37.221 75.992 37.221 125.16 0 43.553-7.671 75.515-25.655 106.857-2.749 4.795-5.654 9.695-8.627 14.702-19.829 33.421-44.491 75.013-44.491 123.744 0 54.963 25.205 96.438 26.272 98.175l1.842 2.802c6.412 10.429 9.993 23.129 9.993 36.137 0 38.311-30.821 68.323-70.165 68.323-39.345 0-70.168-30.012-70.168-68.333 0-11.73 2.792-22.873 8.278-33.112 0.746-1.385 1.543-2.759 2.386-4.103l0.768-1.139c1.479-2.386 26.677-43.905 26.677-98.857 0-35.392-14.118-66.479-27.937-92.218l-37.544 20.147c11.869 22.138 22.863 46.195 22.863 72.084 0 42.477-19.772 75.599-19.977 75.929l-0.648 0.948c-1.675 2.653-2.94 4.837-4.134 7.063-8.735 16.279-13.35 34.699-13.35 53.279 0 62.208 49.54 110.949 112.783 110.949 63.239 0 112.788-48.752 112.788-110.96 0-20.903-5.771-41.326-16.692-59.064l-1.856-2.825c0.021 0-19.571-32.962-19.571-75.237 0-37.044 19.58-70.070 38.534-102.010 3.081-5.189 6.084-10.261 8.939-15.235 21.648-37.747 31.302-77.242 31.302-128.070 0-58.947-22.597-108.625-42.285-145.317-2.644-4.933-4.967-9.474-7.098-13.628-14.535-28.39-26.023-50.827-73.56-50.827zM718.415 564.090h106.541v-42.615h-106.541v42.615zM718.415 628.013h106.541v-42.615h-106.541v42.615z" />
<glyph unicode="&#xe904;" glyph-name="5" d="M775.208 232.219l-36.479-34.126 18.827-20.006 36.479 34.128 61.193-65.9-37.657-35.304 18.829-20.004 37.657 35.304 41.187-43.542-155.336-144.744-192.99 207.113 154.157 144.742zM557.538 384.749l37.823 35.359 19.287-20.632-37.823-35.359-19.287 20.632zM488.243 463.709l37.818 35.364 19.289-20.627-37.818-35.364-19.289 20.627zM819.979 152.309l112.968 105.909-547.196 584.854-122.384-114.146-49.425 52.955 107.085 100.026-69.428 74.135-231.825-216.525 69.43-74.137 88.258 82.375 49.425-52.955-109.44-102.378 547.2-584.854 115.323 107.087 112.97-120.031 111.794-37.657-184.755 195.343zM665.821 69.934l-486.007 520.133 76.49 71.783 221.233-236.53-51.777-48.249 29.419-31.772 155.334 144.742-29.421 31.774-82.373-77.668 16.475 15.299-221.233 237.708 89.434 83.551 486.007-520.133-203.58-190.638z" />
<glyph unicode="&#xe905;" glyph-name="6" d="M646.997 831.835c-44.786 9.759-83.221-1.488-105.485-30.733-25.363-33.301-25.047-84.673 0.78-134.104 18.758-35.83 12.663-52.609-4.211-69.484-15.228-15.228-41.885-15.228-57.117 0-16.875 16.875-22.973 33.654-4.211 69.484 25.834 49.412 26.143 100.803 0.784 134.104-22.268 29.245-60.686 40.436-105.488 30.733-15.857-3.411-25.933-19.071-22.502-34.948 3.451-15.857 19.11-25.949 34.944-22.502 12.663 2.726 35.498 5.255 46.258-8.877 9.193-12.094 10.859-38.79-6.114-71.249-28.557-54.545-23.756-99.805 14.741-138.319 18.738-18.718 43.65-29.047 70.132-29.047 26.479 0 51.388 10.329 70.129 29.047 38.494 38.514 43.294 83.754 14.741 138.319-16.954 32.458-15.291 59.155-6.114 71.249 10.777 14.132 33.575 11.603 46.235 8.877 15.897-3.447 31.497 6.664 34.948 22.502 3.484 15.877-6.608 31.537-22.449 34.948zM507.799 960c-242.787 0-440.3-165.875-440.3-369.72 0-113.858 43.769-206.371 130.186-275.364-1.571-5.136-3.372-10.075-4.705-15.367-26.226-103.431-1.607-208.056 65.836-279.911 42.883-45.668 97.804-70.893 151.766-70.893 10.447 0 20.855 0.961 31.145 2.861 133.749 25.090 140.571 156.116 145.098 242.83 0.412 7.879 0.938 17.638 1.666 27.714 221.951 29.321 359.605 169.52 359.605 368.153 0.003 203.822-197.51 369.697-440.297 369.697zM612.991 285.517c9.489 6.509 14.662 18.327 12.137 30.262-3.335 15.897-18.916 26.226-34.79 22.716-55.471-11.643-58.918-77.38-62.23-141.006-5.232-100.451-15.288-172.717-97.234-188.103-43.495-8.307-91.827 10.724-129.185 50.492-53.666 57.114-73.010 141.296-51.724 225.148 21.287 83.984 68.578 117.325 104.507 130.496 28.066 10.329 56.231 11.037 80.735 6.312-49.159-35.379-81.696-90.925-88.634-157.37-1.706-16.127 10.036-30.634 26.186-32.281 1.037-0.119 2.058-0.158 3.079-0.158 14.879 0 27.638 11.192 29.205 26.344 9.562 91.61 75.048 134.338 133.143 143.864 54.842 8.877 130.795-8.995 176.698-84.419-30.506-14.145-64.492-25.103-101.893-32.297zM765.932 346.947c-51.098 84.946-141.101 129.067-237.242 113.328-6.799-1.116-13.424-2.568-19.953-4.215-49.412 29.93-116.387 36.064-174.577 14.698-47.746-17.543-86.065-51.997-112.528-99.216-64.051 56.448-95.354 128.283-95.354 218.718 0 171.462 171.13 310.917 381.498 310.917 210.351 0 381.498-139.455 381.498-310.917 0.023-104.567-44.134-188.436-123.341-243.314z" />
<glyph unicode="&#xe906;" glyph-name="7" d="M917.482 438.232c14.799 44.395 6.829 105.864-31.875 142.29-27.319 26.182-66.021 39.841-104.725 38.704l-25.044 58.053-53.499-21.628c-12.522 21.628-28.459 40.979-46.672 59.192l33.012 47.81-62.607 45.533-36.427-45.533c-21.626 12.52-45.533 21.628-69.438 27.319l4.554 58.053-77.408 9.108-9.106-56.915c-25.044 0-50.087-4.554-73.99-11.383l-25.044 52.362-71.714-30.734 21.628-53.501c-21.628-12.52-40.981-28.457-59.192-46.67l-47.81 33.011-46.67-62.607 45.533-36.427c-12.52-21.628-21.628-45.533-27.319-69.438l-58.053 4.554-9.108-77.406 56.915-9.108c0-9.108 1.138-18.213 2.277-27.319-71.714-7.968-127.492-60.332-135.461-130.907-4.554-37.564 6.831-71.714 31.875-99.034 37.568-40.977 104.727-66.020 182.133-66.020h226.524c-5.691 11.383-11.383 23.905-14.799 36.427h-211.725c-67.159 0-125.214 20.489-154.81 53.501-18.213 19.351-25.044 43.256-22.767 70.575 6.831 58.053 56.915 101.311 120.66 101.311 17.076 0 34.15-3.414 50.087-9.108l28.459-11.383-4.554 30.734c-17.076 121.799 76.266 218.556 177.577 250.429 20.489 6.829 42.118 9.108 63.746 9.108 92.201 0 186.683-56.915 215.14-129.767l9.108-22.767 19.351 13.66c18.213 12.522 37.564 19.351 59.192 19.351 27.319 0 55.778-11.383 75.129-29.596 31.873-30.734 34.15-88.789 15.937-119.522l-14.799-25.044 28.459-3.414c44.393-4.554 92.201-53.501 88.789-112.693-3.414-50.087-47.81-88.789-104.727-88.789h-37.563c-3.414-12.52-9.108-25.044-14.799-36.427h52.362c76.266 0 136.598 52.363 141.152 122.939 3.416 73.991-45.533 130.907-97.893 149.118zM807.063 228.783l55.776 6.829v69.438l-55.776 5.693c-4.554 18.213-11.383 35.288-21.628 51.224l34.15 44.395-48.947 48.947-43.256-35.288c-15.937 10.245-34.15 17.074-51.224 20.49l-7.968 54.639h-69.438l-5.693-55.778c-18.213-4.554-35.288-11.383-51.224-21.628l-44.395 34.148-48.945-48.947 35.288-43.256c-10.245-15.937-17.076-34.15-20.49-51.226l-54.639-6.829v-69.438l55.778-5.693c4.554-18.213 11.383-35.288 21.626-51.224l-34.148-44.395 48.945-48.947 43.256 35.288c15.938-10.243 34.15-17.074 51.226-20.489l6.829-55.776h69.439l5.691 55.776c18.213 4.554 35.288 11.383 51.224 21.628l44.395-34.15 48.947 48.947-35.288 43.256c10.243 17.076 17.074 34.152 20.489 52.365zM586.231 217.4c-28.457 27.319-28.457 72.852-1.138 101.309s72.852 28.457 100.171 1.138c28.459-27.319 28.459-72.852 1.138-100.171-27.319-29.594-72.852-29.594-100.171-2.275z" />
<glyph unicode="&#xe907;" glyph-name="Add" d="M734.364 427.948h-442.62c-16.267 0-29.465 13.332-29.465 29.772s13.193 29.77 29.465 29.77h442.62c16.275 0 29.469-13.328 29.469-29.77 0-16.439-13.191-29.772-29.469-29.772zM513.059 204.36c-16.269 0-29.465 13.337-29.465 29.772v447.173c0 16.437 13.193 29.77 29.465 29.77 16.275 0 29.467-13.332 29.467-29.77v-447.173c-0.002-16.435-13.191-29.772-29.467-29.772zM867.285 90.143c-195.324-197.317-513.104-197.341-708.45 0-195.312 197.333-195.312 518.382 0 715.729 96.215 97.194 225.077 147.974 355.101 147.974 83.896 0.010 168.284-21.137 244.718-64.618 14.184-8.055 19.21-26.212 11.221-40.542-7.977-14.326-25.948-19.413-40.137-11.336-171.919 97.776-389.556 67.543-529.218-73.599-172.337-174.113-172.337-457.396 0-631.507 172.339-174.131 452.762-174.115 625.095 0 172.331 174.111 172.331 457.394 0 631.507-11.51 11.631-11.51 30.482 0 42.117 11.497 11.622 30.163 11.622 41.673 0 195.31-197.343 195.31-518.396-0.002-715.725z" />
<glyph unicode="&#xe908;" glyph-name="Add-02" d="M803.599-58.252h-577.519c-118.901 0-215.509 96.608-215.509 215.509v577.519c0.002 118.901 96.608 215.509 215.509 215.509 27.601 0 49.895-22.294 49.895-49.897 0-27.601-22.294-49.897-49.895-49.897-63.697 0-114.657-50.958-114.657-114.655v-577.52c0-63.697 50.959-114.655 114.657-114.655h577.519c63.697 0 114.655 50.958 114.655 114.655 0 27.603 22.292 49.899 49.897 49.899 27.601 0 49.897-22.294 49.897-49.899 1.061-119.96-95.548-216.568-214.449-216.568zM968.151 622.244h-453.311c-27.603 0-49.895 22.294-49.895 49.895 0 27.603 22.292 49.897 49.895 49.897h453.309c27.601 0 49.897-22.292 49.897-49.897 0-27.601-21.232-49.895-49.895-49.895zM742.027 396.12c-27.601 0-49.897 22.292-49.897 49.895v454.373c0 27.603 22.294 49.897 49.897 49.897s49.897-22.294 49.897-49.897v-453.309c-0.002-28.665-22.294-50.959-49.897-50.959z" />
<glyph unicode="&#xe909;" glyph-name="Arrow-Left" d="M775.139-5.738c0-20.729-16.813-37.576-37.576-37.576-20.753 0-37.573 16.847-37.573 37.576 0 20.79 16.821 37.576 37.573 37.576 20.758 0.005 37.576-16.786 37.576-37.576v0zM775.139 107.897c0-20.705-16.813-37.568-37.576-37.568-20.753 0-37.573 16.866-37.573 37.568 0 20.784 16.821 37.613 37.573 37.613 20.758 0 37.576-16.829 37.576-37.613v0zM661.501 107.897c0-20.705-16.821-37.568-37.626-37.568-20.742 0-37.563 16.866-37.563 37.568 0 20.784 16.821 37.613 37.563 37.613 20.805 0 37.626-16.829 37.626-37.613v0zM661.501 221.619c0-20.76-16.821-37.637-37.626-37.637-20.742 0-37.563 16.876-37.563 37.637 0 20.715 16.821 37.573 37.563 37.573 20.805 0.003 37.626-16.858 37.626-37.573v0zM547.816 221.619c0-20.76-16.821-37.637-37.589-37.637-20.739 0-37.56 16.876-37.56 37.637 0 20.715 16.821 37.573 37.56 37.573 20.768 0.003 37.589-16.858 37.589-37.573v0zM547.816 335.267c0-20.784-16.821-37.594-37.589-37.594-20.739 0-37.56 16.81-37.56 37.594 0 20.71 16.821 37.563 37.56 37.563 20.768 0.005 37.589-16.852 37.589-37.563v0zM434.163 335.267c0-20.784-16.821-37.594-37.563-37.594-20.79 0-37.623 16.81-37.623 37.594 0 20.71 16.831 37.563 37.623 37.563 20.734 0.005 37.563-16.852 37.563-37.563v0zM434.163 448.91c0-20.79-16.821-37.589-37.563-37.589-20.79 0-37.623 16.799-37.623 37.589s16.831 37.586 37.623 37.586c20.734 0 37.563-16.797 37.563-37.586v0zM320.501 448.91c0-20.79-16.831-37.589-37.6-37.589-20.753 0-37.56 16.799-37.56 37.589s16.81 37.586 37.56 37.586c20.768 0 37.6-16.797 37.6-37.586v0zM547.816 562.55c0-20.71-16.821-37.563-37.589-37.563-20.739 0-37.56 16.852-37.56 37.563 0 20.782 16.821 37.594 37.56 37.594 20.768 0 37.589-16.813 37.589-37.594v0zM434.163 562.55c0-20.71-16.821-37.563-37.563-37.563-20.79 0-37.623 16.852-37.623 37.563 0 20.782 16.831 37.594 37.623 37.594 20.734 0 37.563-16.813 37.563-37.594v0zM661.501 676.199c0-20.715-16.821-37.589-37.626-37.589-20.742 0-37.563 16.874-37.563 37.589 0 20.76 16.821 37.637 37.563 37.637 20.805 0.005 37.626-16.876 37.626-37.637v0zM547.816 676.199c0-20.715-16.821-37.589-37.589-37.589-20.739 0-37.56 16.874-37.56 37.589 0 20.76 16.821 37.637 37.56 37.637 20.768 0.005 37.589-16.876 37.589-37.637v0zM775.139 789.921c0-20.79-16.813-37.613-37.576-37.613-20.753 0-37.573 16.821-37.573 37.613 0 20.702 16.821 37.568 37.573 37.568 20.758 0 37.576-16.866 37.576-37.568v0zM661.501 789.921c0-20.79-16.821-37.613-37.626-37.613-20.742 0-37.563 16.821-37.563 37.613 0 20.702 16.821 37.568 37.563 37.568 20.805 0 37.626-16.866 37.626-37.568v0zM775.139 903.55c0-20.784-16.813-37.57-37.576-37.57-20.753 0-37.573 16.791-37.573 37.57 0 20.795 16.821 37.578 37.573 37.578 20.758 0 37.576-16.791 37.576-37.578v0z" />
<glyph unicode="&#xe90a;" glyph-name="Arrow-Right" d="M245.342 903.553c0 20.729 16.813 37.576 37.576 37.576 20.753 0 37.573-16.847 37.573-37.576 0-20.79-16.821-37.576-37.573-37.576-20.76-0.005-37.576 16.786-37.576 37.576v0zM245.342 789.918c0 20.705 16.813 37.568 37.576 37.568 20.753 0 37.573-16.866 37.573-37.568 0-20.784-16.821-37.613-37.573-37.613-20.76 0-37.576 16.829-37.576 37.613v0zM358.977 789.918c0 20.705 16.821 37.568 37.626 37.568 20.742 0 37.563-16.866 37.563-37.568 0-20.784-16.821-37.613-37.563-37.613-20.803 0-37.626 16.829-37.626 37.613v0zM358.977 676.196c0 20.76 16.821 37.637 37.626 37.637 20.742 0 37.563-16.876 37.563-37.637 0-20.715-16.821-37.573-37.563-37.573-20.803 0-37.626 16.858-37.626 37.573v0zM472.662 676.196c0 20.76 16.821 37.637 37.589 37.637 20.739 0 37.56-16.876 37.56-37.637 0-20.715-16.821-37.573-37.56-37.573-20.768 0-37.589 16.858-37.589 37.573v0zM472.662 562.55c0 20.784 16.821 37.594 37.589 37.594 20.739 0 37.56-16.81 37.56-37.594 0-20.71-16.821-37.563-37.56-37.563-20.768-0.008-37.589 16.85-37.589 37.563v0zM586.315 562.55c0 20.784 16.821 37.594 37.563 37.594 20.79 0 37.623-16.81 37.623-37.594 0-20.71-16.831-37.563-37.623-37.563-20.731-0.008-37.563 16.85-37.563 37.563v0zM586.315 448.908c0 20.79 16.821 37.589 37.563 37.589 20.79 0 37.623-16.799 37.623-37.589s-16.831-37.586-37.623-37.586c-20.731 0-37.563 16.794-37.563 37.586v0zM699.977 448.908c0 20.79 16.831 37.589 37.6 37.589 20.753 0 37.56-16.799 37.56-37.589s-16.81-37.586-37.56-37.586c-20.766 0-37.6 16.794-37.6 37.586v0zM472.662 335.267c0 20.71 16.821 37.563 37.589 37.563 20.739 0 37.56-16.852 37.56-37.563 0-20.782-16.821-37.594-37.56-37.594-20.768 0-37.589 16.81-37.589 37.594v0zM586.315 335.267c0 20.71 16.821 37.563 37.563 37.563 20.79 0 37.623-16.852 37.623-37.563 0-20.782-16.831-37.594-37.623-37.594-20.731 0-37.563 16.81-37.563 37.594v0zM358.977 221.617c0 20.715 16.821 37.589 37.626 37.589 20.742 0 37.563-16.874 37.563-37.589 0-20.76-16.821-37.637-37.563-37.637-20.803-0.003-37.626 16.879-37.626 37.637v0zM472.662 221.617c0 20.715 16.821 37.589 37.589 37.589 20.739 0 37.56-16.874 37.56-37.589 0-20.76-16.821-37.637-37.56-37.637-20.768-0.003-37.589 16.879-37.589 37.637v0zM245.342 107.897c0 20.79 16.813 37.613 37.576 37.613 20.753 0 37.573-16.821 37.573-37.613 0-20.702-16.821-37.568-37.573-37.568-20.76 0-37.576 16.866-37.576 37.568v0zM358.977 107.897c0 20.79 16.821 37.613 37.626 37.613 20.742 0 37.563-16.821 37.563-37.613 0-20.702-16.821-37.568-37.563-37.568-20.803 0-37.626 16.866-37.626 37.568v0zM245.342-5.733c0 20.784 16.813 37.57 37.576 37.57 20.753 0 37.573-16.791 37.573-37.57 0-20.795-16.821-37.578-37.573-37.578-20.76-0.003-37.576 16.789-37.576 37.578v0z" />
<glyph unicode="&#xe90b;" glyph-name="bell" d="M859.312 294.193v215.396c0 145.803-90.264 270.852-217.697 321.934-2.607 68.449-58.954 123.343-127.88 123.343s-125.278-54.894-127.884-123.343c-127.431-51.080-217.693-176.131-217.693-321.934v-215.396c-35.1-5.009-62.165-35.308-62.165-71.817v-49.135c0-40.006 32.493-72.554 72.434-72.554h212.19c-3.217-11.334-4.889-23.159-4.889-35.168 0-70.741 57.428-128.294 128.007-128.294 70.581 0 128.003 57.553 128.003 128.294 0 12.013-1.668 23.834-4.886 35.168h212.19c39.938 0 72.434 32.547 72.434 72.554v49.137c0.002 36.507-27.063 66.808-62.165 71.815zM513.737 6.74c-32.252 0-58.493 26.368-58.493 58.78 0 9.907 2.47 19.528 7.093 28.067h102.798c4.626-8.539 7.089-18.164 7.089-28.067 0.002-32.412-26.239-58.78-58.488-58.78zM513.737 885.349c23.128 0 43.104-13.599 52.593-33.223-17.15 2.638-34.719 4.005-52.593 4.005-17.878 0-35.442-1.368-52.598-4.005 9.488 19.622 29.467 33.223 52.598 33.223zM851.961 173.241c0-1.59-1.388-3.034-2.916-3.034h-670.616c-1.525 0-2.913 1.446-2.913 3.034v49.137c0 1.586 1.39 3.028 2.913 3.028h24.485c19.196 0 34.76 15.563 34.76 34.761v249.425c0 152.752 123.844 277.024 276.061 277.024 152.219 0 276.061-124.272 276.061-277.024v-249.425c0-19.196 15.563-34.761 34.761-34.761h24.484c1.527 0 2.916-1.443 2.916-3.028v-49.137zM638.070 606.706c-19.196 0-34.761-15.563-34.761-34.761v-249.43c0-19.198 15.563-34.761 34.761-34.761 19.196 0 34.758 15.563 34.758 34.761v249.43c0 19.198-15.562 34.761-34.758 34.761z" />
<glyph unicode="&#xe90c;" glyph-name="calendar" d="M833.412 401.805h-643.906c-15.452 0-27.472-12.023-27.472-29.191 0-17.171 12.017-29.191 27.472-29.191h643.906c15.452 0 29.191 12.020 29.191 29.191 0 17.169-12.020 29.191-29.191 29.191zM598.172 195.756h-408.665c-15.452 0-27.472-12.023-27.472-29.191 0-17.171 12.017-29.191 27.472-29.191h408.668c15.452 0 29.188 12.020 29.188 29.191-0.003 17.169-13.736 29.191-29.191 29.191zM922.702 805.321h-113.329v54.947c0 44.646-36.059 82.419-82.419 82.419s-82.419-36.059-82.419-82.419v-54.947h-264.434v54.947c0 44.646-36.056 82.419-82.419 82.419-44.646 0-82.419-36.059-82.419-82.419v-54.947h-113.329c-53.231 0-96.158-42.93-96.158-96.158v-661.080c0-53.231 42.927-97.877 96.158-97.877h820.769c53.228 0 97.874 42.927 97.874 97.877v661.080c-1.719 53.228-44.646 96.158-97.874 96.158zM701.198 860.268c0 13.736 12.020 25.759 25.756 25.759 13.739 0 25.759-12.023 25.759-25.759v-116.762c0-13.739-12.020-25.759-25.759-25.759-13.736 0-25.756 12.020-25.756 25.759v116.762zM297.678 886.024c13.739 0 25.759-12.023 25.759-25.759v-116.762c0-13.739-12.020-25.759-25.759-25.759v0c-13.736 0-25.756 12.020-25.756 25.759v116.765c1.716 13.736 12.023 25.756 25.756 25.756zM101.933 748.655h113.327v-3.433c0-44.646 36.059-82.419 82.419-82.419 46.363 0 82.422 36.059 82.422 82.419v3.433h264.431v-3.433c0-44.646 36.059-82.419 82.419-82.419s82.419 36.059 82.419 82.419v3.433h113.329c22.32 0 39.492-18.888 39.492-41.211v-118.478h-899.75v118.478c0 22.326 17.169 41.211 39.492 41.211zM922.702 6.872h-820.769c-22.323 0-41.211 18.888-41.211 39.492v487.655h899.756v-487.655c1.716-20.604-15.455-39.492-37.776-39.492z" />
<glyph unicode="&#xe90d;" glyph-name="Cancel" horiz-adv-x="1025" d="M555.363 444.501l449.229 449.235c10.863 10.87 10.863 28.981 0 39.851s-28.981 10.87-39.857 0l-449.223-449.235-449.229 445.608c-10.87 10.87-28.987 10.87-39.851 0-10.87-10.87-10.87-28.981 0-39.851l449.229-445.614-445.614-449.229c-10.863-10.863-10.863-28.987 0-39.845 3.627-3.633 10.87-7.248 18.118-7.248s14.491 3.627 18.118 7.248l449.229 449.223 449.223-449.223c3.633-3.633 10.876-7.248 18.124-7.248s14.491 3.627 18.124 7.248c10.863 10.857 10.863 28.981 0 39.845l-445.62 449.235z" />
<glyph unicode="&#xe90e;" glyph-name="Comment" d="M838.52 244.585l177.056-238.46h-568.175c-242.784 0-440.299 197.527-440.299 440.299 0 242.784 197.528 440.312 440.311 440.312 242.784 0 440.299-197.527 440.299-440.312 0-70.11-16.952-139.55-49.192-201.839zM447.401 839.113c-216.518 0-392.676-176.169-392.676-392.689 0-216.508 176.158-392.676 392.676-392.676h473.491l-138.857 187.025 7.586 13.48c33.022 58.594 50.47 125.030 50.47 192.149 0 216.542-176.147 392.712-392.689 392.712zM603.915 413.325c-11.373 0-19.866 3.034-25.536 9.231-5.69 6.174-8.514 13.828-8.514 22.984 0 9.557 2.824 17.513 8.514 23.9 5.672 6.353 14.185 9.545 25.536 9.545 11.319 0 19.936-3.192 25.807-9.545 5.871-6.389 8.819-14.344 8.819-23.9 0-9.144-2.946-16.809-8.819-22.984-5.871-6.195-14.5-9.231-25.807-9.231zM442.953 413.325c-11.351 0-19.844 3.034-25.527 9.231-5.67 6.174-8.504 13.828-8.504 22.984 0 9.557 2.835 17.513 8.504 23.9 5.683 6.353 14.187 9.545 25.527 9.545s19.947-3.192 25.841-9.545c5.86-6.389 8.796-14.344 8.796-23.9 0-9.144-2.936-16.809-8.796-22.984-5.896-6.195-14.49-9.231-25.841-9.231zM282.022 413.325c-11.351 0-19.855 3.034-25.527 9.231-5.67 6.174-8.514 13.828-8.514 22.984 0 9.557 2.835 17.513 8.514 23.9 5.672 6.353 14.187 9.545 25.527 9.545s19.959-3.192 25.83-9.545c5.871-6.389 8.808-14.344 8.808-23.9 0-9.144-2.936-16.809-8.808-22.984-5.882-6.195-14.488-9.231-25.83-9.231z" />
<glyph unicode="&#xe90f;" glyph-name="Connect" d="M700.031 855.565c-104.037 0-188.774-84.741-188.774-188.774v-125.849c0-60.449 29.118-113.757 73.494-148.339-118.822-49.343-204.086-175.176-208.068-322.732-0.473-17.37 13.224-31.837 30.596-32.308 0.248-0.009 0.496-0.012 0.743-0.012l575.903-0.984c17.379-0.071 31.522 13.959 31.593 31.338 0.002 0.289-0.002 0.577-0.009 0.864-3.53 145.303-85.928 270.453-203.029 321.502 46.049 34.467 76.32 88.902 76.32 150.674v125.849c0.002 104.032-84.734 188.772-188.769 188.772zM700.031 792.64c70.264 0 125.847-55.589 125.847-125.849v-125.849c0-70.269-55.583-125.849-125.847-125.849s-125.849 55.58-125.849 125.849v125.849c0 70.26 55.583 125.849 125.849 125.849zM289.917 666.791c-86.606 0-157.309-70.708-157.309-157.31v-62.925c0-46.185 20.575-87.308 52.477-116.139-101.273-42.569-172.559-143.358-176.114-259.686-0.542-17.368 13.1-31.887 30.469-32.431 0.291-0.009 0.58-0.014 0.871-0.015l248.87-0.613c17.375-0.277 31.687 13.584 31.963 30.957 0.277 17.377-13.584 31.687-30.959 31.964-0.294 0.005-0.589 0.005-0.881 0.002l-210.157 0.613c18.867 107.966 106.899 191.462 219.251 188.16 4.86-0.377 9.741 0.38 14.255 2.211 75.845 11.14 134.574 76.131 134.574 154.975v62.925c0.002 86.605-70.702 157.312-157.309 157.312zM289.917 603.868c52.835 0 94.387-41.555 94.387-94.387v-62.925c0-52.838-41.552-94.387-94.387-94.387-52.833 0-94.385 41.549-94.385 94.387v62.925c0 52.832 41.552 94.387 94.385 94.387zM703.718 351.924c124.279-4.278 224.765-111.681 242.48-252.31l-499.953 0.737c18.802 146.873 127.453 256.029 257.473 251.574z" />
<glyph unicode="&#xe910;" glyph-name="Cover-Edit" d="M963.775 296.289c-46.874 46.874-121.87 60.933-189.826 35.153l-147.651 147.644c-7.026 7.030-18.747 7.030-25.774 0-7.030-7.026-7.030-18.751 0-25.777l157.016-157.019c4.684-4.688 11.721-7.026 18.747-4.688 58.588 25.781 121.87 16.409 164.056-23.432 35.153-35.153 46.874-86.718 32.811-138.272l-84.375 84.375c-4.681 4.684-11.718 7.026-18.747 4.684l-77.335-25.777c-4.688-2.342-9.375-4.688-9.375-9.375l-28.126-77.339c-2.342-7.026 0-14.060 4.684-18.747l84.375-84.372c-51.561-14.063-103.123 0-138.272 32.811-39.84 39.84-49.216 105.465-23.435 164.053 2.342 7.030 2.342 14.067-4.684 18.751l-157.016 157.019c-7.026 7.030-18.751 7.030-25.774 0-7.030-7.030-7.030-18.751 0-25.781l147.644-147.644c-25.777-67.963-11.721-142.96 35.153-189.833 32.814-32.811 74.996-49.216 121.87-49.216 25.777 0 53.904 4.688 79.681 16.405 4.688 2.346 9.375 7.030 9.375 11.725 0 4.681 0 11.718-4.681 16.405l-96.086 96.086 21.089 58.584 58.591 21.093 96.082-96.086c4.684-4.684 9.375-7.026 16.409-4.684 4.681 0 9.375 4.684 11.718 9.375 35.135 74.982 23.414 154.663-28.144 203.879zM354.442 172.080l-124.212 126.551 44.525 44.528 126.558-126.558-46.87-44.521zM197.423 15.057c-23.432-23.432-63.272-23.432-86.714 0l-39.84 39.84c-23.432 23.435-23.432 63.275 0 86.718l133.584 131.239 124.212-126.554-131.242-131.242zM870.031 832.967l18.747-18.747-77.339-84.368-25.774 25.781 84.365 77.335zM373.19 293.943l412.47 412.47 14.063-14.060c2.342-2.346 7.030-4.688 11.721-4.688v0c4.684 0 9.375 2.342 11.721 4.688l100.77 110.149c7.030 7.030 7.030 18.751 0 23.435l-42.186 42.186c-7.030 7.030-16.405 7.030-23.435 0l-110.149-100.77c-4.684-2.346-4.684-7.030-4.684-11.718s2.342-9.375 4.684-11.721l14.063-14.063-414.816-412.47-63.272 63.275c-7.030 7.026-18.747 7.026-25.777 0l-215.614-215.614c-37.495-37.498-37.495-98.428 0-135.926l39.84-39.84c18.751-18.747 42.182-28.126 67.967-28.126s49.216 9.375 67.967 28.126l215.614 215.614c2.342 2.342 4.688 7.030 4.688 11.718s-2.346 9.375-4.688 11.721l-60.947 65.614zM286.479 561.115l119.517-119.525c2.346-2.339 7.030-4.684 11.725-4.684 4.681 0 9.375 2.346 11.718 4.684 7.030 7.030 7.030 18.751 0 25.781l-128.896 128.896c-4.688 4.688-11.718 7.030-18.747 4.688-58.591-25.781-121.874-16.405-164.053 23.435-35.156 35.153-46.874 86.714-32.811 135.923l84.368-84.368c4.688-4.688 14.063-7.030 18.751-4.688l77.339 28.13c4.684 2.339 9.375 4.684 9.375 9.375l30.472 79.681c2.342 7.026 0 14.063-4.688 18.751l-84.375 84.365c51.565 14.063 103.123 0 138.272-32.811 39.84-39.84 49.216-105.461 23.435-164.049-2.346-7.030-2.346-14.063 4.684-18.751l128.9-128.896c7.026-7.030 18.747-7.030 25.774 0 7.030 7.026 7.030 18.751 0 25.777l-119.517 119.521c23.432 67.963 9.375 140.614-37.498 189.83-49.219 49.219-128.9 63.279-201.551 32.814-4.684-2.342-9.375-9.375-11.721-14.060 0-4.688 0-11.721 4.688-16.405l96.086-96.089-21.093-58.591-58.588-21.093-96.082 93.747c-4.688 4.688-11.721 7.030-16.405 7.030-4.688 0-11.721-4.688-11.721-9.375-32.814-74.996-18.747-152.332 30.468-203.893 49.216-46.867 121.867-60.93 192.175-35.149z" />
<glyph unicode="&#xe911;" glyph-name="Cross" d="M1014.769 918.571l-31.275 31.325-471.253-471.222-471.222 471.222-31.306-31.325 471.222-471.217-471.222-471.222 31.306-31.339 471.222 471.284 471.253-471.284 31.275 31.339-471.22 471.222z" />
<glyph unicode="&#xe912;" glyph-name="Date" d="M861.249 800.386h-7.972v77.375c0 41.565-33.807 75.373-75.354 75.373-41.559 0-75.364-33.807-75.364-75.373v-77.375h-113.736v77.375c0 41.565-33.818 75.373-75.354 75.373-41.565 0-75.373-33.807-75.373-75.373v-77.375h-113.736v77.375c0 41.565-33.807 75.373-75.344 75.373-41.565 0-75.364-33.807-75.364-75.373v-77.375h-8.76c-77.803 0-141.089-63.286-141.089-141.079v-578.109c0-77.793 63.286-141.079 141.089-141.079h696.354c77.803 0 141.079 63.286 141.079 141.079v578.109c0.003 77.795-63.272 141.079-141.075 141.079zM744.87 877.763c0 18.224 14.827 33.061 33.042 33.061 18.224 0 33.041-14.835 33.041-33.061v-177.396c0-18.224-14.816-33.030-33.041-33.030-18.216 0-33.042 14.806-33.042 33.030v177.396zM480.407 877.763c0 18.224 14.835 33.061 33.061 33.061s33.030-14.835 33.030-33.061v-177.396c0-18.224-14.804-33.030-33.030-33.030s-33.061 14.806-33.061 33.030v177.396zM215.966 877.763c0 18.224 14.835 33.061 33.051 33.061s33.032-14.835 33.032-33.061v-177.396c0-18.224-14.806-33.030-33.032-33.030s-33.051 14.806-33.051 33.030v177.396zM164.893 758.075h8.76v-57.699c0-41.547 33.807-75.344 75.364-75.344 41.548 0 75.344 33.797 75.344 75.344v57.699h113.736v-57.701c0-41.547 33.807-75.342 75.373-75.342 41.536 0 75.354 33.797 75.354 75.342v57.701h113.736v-57.701c0-41.547 33.806-75.342 75.364-75.342 41.547 0 75.354 33.797 75.354 75.342v57.701h7.972c54.464 0 98.788-44.313 98.788-98.767v-123.465h-893.921v123.465c0 54.452 44.313 98.767 98.776 98.767zM861.249-17.567h-696.356c-54.462 0-98.776 44.303-98.776 98.765v412.322h893.907v-412.32c0-54.464-44.313-98.767-98.776-98.767zM174.267 77.647h684.624v342.266h-684.624v-342.266zM216.589 224.351h89.783v-104.403h-89.783v104.403zM602.567 224.351h84.613v-104.403h-84.613v104.403zM560.243 119.958h-84.625v104.393h84.625v-104.393zM602.567 266.673v110.926h84.613v-110.926h-84.613zM560.243 266.673h-84.625v110.926h84.625v-110.926zM433.306 266.673h-84.625v110.926h84.625v-110.926zM433.306 224.351v-104.403h-84.625v104.403h84.625zM729.493 119.958v104.393h87.085v-104.403l-87.085 0.010zM816.588 266.673h-87.085v110.926h87.085v-110.926zM306.37 377.601v-110.926h-89.783v110.926h89.783z" />
<glyph unicode="&#xe913;" glyph-name="Doctor" d="M829.313 516.222v-338.524c0-128.703-104.677-233.369-233.369-233.369-128.675 0-233.369 104.666-233.369 233.369v85.423c0 11.257 9.127 20.405 20.405 20.405 11.257 0 20.375-9.148 20.375-20.405v-85.423c0-106.212 86.409-192.589 192.58-192.589 106.191 0 192.589 86.379 192.589 192.589v338.524c0 11.257 9.127 20.386 20.395 20.386 11.266 0.010 20.395-9.118 20.395-20.386zM367.672 316.033c-0.811 1.090-5.638 8.005-10.882 15.327-17.249 24.072-58.694 82.171-159.788 223.888-0.83 1.164-1.514 2.378-2.067 3.655-0.923 2.13-5.982 9.607-11.255 16.886-29.389 40.655-46.731 90.552-46.731 144.428v150.968c0 1.174 0.105 2.325 0.302 3.449 0.331 1.881 1.724 10.79 5.908 18.755 18.879 35.992 81.932 55.17 110.325 55.17 42.274 0 76.667-34.394 76.667-76.667 0-42.265-34.394-76.659-76.667-76.659-14.735 0-38.818 5.171-61.206 15.161-8.225 3.686-14.538 0.084-14.538-8.919v-81.269c0-113.73 92.537-206.255 206.265-206.255 113.73 0 206.236 92.526 206.236 206.255v80.844c0 9.003-6.303 12.647-14.559 9.024-22.181-9.792-45.878-14.849-60.468-14.849-42.254 0-76.657 34.392-76.657 76.657 0 42.275 34.404 76.669 76.657 76.669 33.604 0 115.818-26.854 115.818-76.669 0-0.082-0.021-0.166-0.021-0.249 0-0.155 0.031-0.312 0.031-0.457v-150.969c0-53.874-17.352-103.792-46.752-144.436-5.274-7.301-10.312-14.756-11.255-16.885-0.551-1.266-1.226-2.482-2.057-3.644 0 0-170.15-238.51-170.171-238.552l-0.208-0.291c-0.623-0.851-1.298-1.621-2.003-2.338-0.073-0.092-0.113-0.176-0.187-0.239-0.239-0.229-0.509-0.457-0.748-0.686-0.218-0.178-0.426-0.373-0.644-0.56-0.487-0.405-0.996-0.788-1.516-1.143-0.094-0.061-0.187-0.145-0.279-0.197-0.633-0.424-1.277-0.788-1.952-1.122-0.167-0.113-0.331-0.166-0.509-0.229-0.52-0.249-1.040-0.476-1.547-0.686-0.218-0.073-0.426-0.147-0.644-0.218-0.509-0.178-1.007-0.323-1.516-0.447-0.218-0.063-0.447-0.113-0.665-0.178-0.53-0.113-1.080-0.218-1.61-0.27-0.197-0.031-0.396-0.072-0.604-0.092-0.726-0.084-1.464-0.126-2.242-0.126-0.895 0-1.797 0.073-2.69 0.197-0.208 0.042-0.415 0.073-0.633 0.105-0.893 0.147-1.765 0.331-2.627 0.604-0.124 0.061-0.27 0.105-0.396 0.145-0.82 0.281-1.631 0.604-2.409 0.986-0.124 0.052-0.249 0.113-0.373 0.167-0.862 0.426-1.683 0.923-2.482 1.495-0.073 0.040-0.124 0.072-0.187 0.113-0.155 0.092-0.291 0.229-0.436 0.331-0.312 0.229-0.623 0.476-0.912 0.726-0.26 0.218-0.52 0.459-0.768 0.677-0.073 0.092-0.157 0.166-0.241 0.218-0.124 0.113-0.312 0.29-0.373 0.373-0.042 0.040-0.084 0.094-0.145 0.167-0.553 0.572-1.104 1.197-1.591 1.861zM590.241 871.891c0 2.908-6.085 12.025-24.934 21.63-18.35 9.356-39.085 14.257-50.094 14.257-19.772 0-35.877-16.086-35.877-35.889 0-19.772 16.105-35.878 35.877-35.878 11.018 0 31.754 4.902 50.094 14.257 18.849 9.607 24.934 18.715 24.934 21.623zM178.457 871.891c0-2.908 6.085-12.016 24.921-21.621 18.359-9.356 39.097-14.257 50.106-14.257 19.782 0 35.877 16.107 35.877 35.878 0 19.793-16.096 35.889-35.877 35.889-11.009 0-31.746-4.902-50.106-14.257-18.837-9.607-24.921-18.713-24.921-21.631zM374.526 376.615c5.223-7.322 13.706-7.322 18.931 0l71.778 100.603c5.223 7.332 2.688 10.519-5.867 7.779-23.781-7.642-49.089-11.817-75.361-11.817-26.282 0-51.61 4.175-75.38 11.817-8.578 2.761-11.1-0.436-5.877-7.758 25.534-35.805 52.604-73.728 71.776-100.624zM885.594 634.127c0-41.548-36.604-76.657-79.928-76.657-42.275 0-76.68 34.394-76.68 76.657 0 42.286 34.394 76.659 76.68 76.659 43.313 0 79.928-35.090 79.928-76.659zM844.805 634.127c0 19.118-18.296 35.878-39.148 35.878-19.784 0-35.878-16.086-35.878-35.878 0-19.772 16.096-35.877 35.878-35.877 20.85 0 39.148 16.77 39.148 35.877z" />
<glyph unicode="&#xe914;" glyph-name="Doctor-02" d="M713.563 492.182c37.684-38.13 64.622-86.876 75.893-141.38 34.142-2.851 60.973-31.427 60.973-66.293 0-36.771-29.809-66.58-66.578-66.58-36.771 0-66.58 29.809-66.58 66.58 0 31.041 21.273 57.033 50.017 64.407-14.881 69.494-56.844 130.003-114.191 168.293-0.563 0.188-1.108 0.393-1.671 0.572l-143.471-254.248-136.018 253.917c-10.555-3.468-20.941-7.329-31.13-11.548-55.55-44.816-86.806-114.862-89.388-201.033 56.407-4.934 101.16-74.675 101.16-160.248l-20.863-17.734c1.77-2.725 2.815-5.953 2.815-9.447 0-9.6-7.785-17.375-17.384-17.375-9.59 0-17.375 7.776-17.375 17.375s7.787 17.375 17.375 17.375c3.351 0 6.464-0.992 9.126-2.646l17.922 12.45c0 81.836-44.377 148.181-99.122 148.181s-99.122-66.347-99.122-148.181l16.401-11.387c2.191 0.991 4.613 1.592 7.177 1.592 9.6 0 17.384-7.776 17.384-17.375s-7.785-17.375-17.384-17.375c-9.599 0-17.384 7.776-17.384 17.375 0 4.29 1.617 8.177 4.201 11.208l-18.788 15.973c0 80.771 39.889 147.423 91.803 158.827 2.619 73.524 24.285 139.905 72.62 188.778-134.318-67.473-221.195-200.273-236.666-356.75 88.896-137.386 255.731-192.649 446.896-192.649 191.156 0 358.001 55.263 446.896 192.64-15.471 156.468-111.268 289.232-245.544 356.705zM694.652 125.638h-44.556v-44.547h-37.978v44.547h-44.555v37.977h44.555v44.556h37.978v-44.556h44.556v-37.977zM793.228 327.17c-3.030 0.661-6.15 1.063-9.375 1.063-4.461 0-8.687-0.866-12.746-2.099-17.893-5.479-30.998-21.933-30.998-41.625 0-24.16 19.584-43.751 43.744-43.751 24.159 0 43.733 19.582 43.733 43.751 0 20.924-14.722 38.362-34.358 42.661zM512.21 949.804c-119.304 0-216.011-96.708-216.011-216.002 0-76.66 39.971-143.937 100.167-182.28 4.246-2.7 8.554-5.309 12.986-7.713 30.586-16.588 65.623-26.019 102.867-26.019 34.876 0 67.803 8.321 96.977 23.007 6.489 3.272 12.782 6.847 18.867 10.734 60.188 38.335 100.158 105.621 100.158 182.281-0.009 119.284-96.717 215.992-216.011 215.992z" />
<glyph unicode="&#xe915;" glyph-name="Done" d="M945.361 772.369l-410.624-487.474c-5.263-6.212-12.83-10.049-21.012-10.524-0.585 0-1.131-0.039-1.716-0.039-7.53 0-14.839 2.844-20.373 8.071l-237.709 223.314c-11.967 11.2-12.554 30.019-1.333 41.986 11.275 11.949 30.094 12.588 42.043 1.315l214.851-201.824 390.417 463.469c10.522 12.552 29.343 14.161 41.872 3.582 12.538-10.597 14.143-29.343 3.584-41.877zM512.007-59.447c-278.564 0-505.18 226.6-505.18 505.164 0 278.562 226.616 505.178 505.18 505.178 94.388 0 186.404-26.219 266.174-75.753 13.922-8.677 18.236-26.97 9.573-40.946-8.697-13.922-26.97-18.234-40.889-9.555-70.347 43.723-151.579 66.783-234.858 66.783-245.785 0-445.709-199.923-445.709-445.706 0-245.785 199.921-445.711 445.709-445.711 245.785 0 445.706 199.921 445.706 445.711 0 49.405-8.005 97.897-23.83 144.195-5.263 15.476 2.995 32.395 18.528 37.731 15.528 5.243 32.456-2.979 37.751-18.509 17.87-52.456 27.002-107.454 27.002-163.417 0-278.564-226.6-505.164-505.157-505.164z" />
<glyph unicode="&#xe916;" glyph-name="Dropdown-Arrow" d="M6.793 783.3h1014.174v-137.61h-1014.174v137.61zM145.44 517.198h736.878v-140.985h-736.878v140.985zM374.334 247.075h279.090v-138.541h-279.090v138.541z" />
<glyph unicode="&#xe917;" glyph-name="Edit" d="M354.008 233.144l21.616 149.185 126.113-109.642-147.729-39.543zM1018.097 737.087c0.474 8.727-5.023 19.981-8.499 25.568-3.569 5.734-13.028 19.697-26.235 19.448-16.627-0.305-427.712-484.187-427.712-484.187l-57.209 49.736c0.146 0.157 0.328 0.26 0.463 0.43l256.865 286.394c10.284 11.469 9.311 29.271-2.147 39.553-11.469 10.284-29.271 9.313-39.553-2.145l-256.853-286.394c-0.338-0.383-0.563-0.814-0.88-1.208l-61.95 53.866c0 0 436.438 462.211 438.56 477.247 1.083 7.653-3.512 19.134-17.317 25.591-9.618 4.492-25.408 4.187-27.475 4.119h-678.537c-56.273 0-102.025-45.775-102.025-102.023v-791.939c0-56.273 45.752-102.023 102.025-102.023h806.66c56.273 0 102.025 45.75 102.025 102.023v685.932c-0.091 0-0.15 0.011-0.205 0.011zM967.265 51.132c0-28.118-22.892-51.010-51.010-51.010h-806.662c-28.118 0-51.010 22.892-51.010 51.010v791.952c0 28.13 22.892 51.012 51.010 51.012h620.618l-395.179-440.424c-3.544-3.952-5.835-8.839-6.593-14.067l-34.712-239.514c-1.299-9.009 2.090-18.051 9.019-24.079 5.497-4.784 12.679-7.155 19.869-6.703 1.839 0.101 3.69 0.406 5.507 0.88l237.145 63.486c5.181 1.388 9.821 4.233 13.388 8.196l388.612 433.097v-623.836h-0.002z" />
<glyph unicode="&#xe918;" d="M650.402 946.892h119.193l-582.991-629.695 85.558-74.393 355.949 397.199c0 0 69.512 32.786 62.299-45.156l-359.458-402.042 78.371-69.281 569.276 650.562-0.804-129.828-555.191-609.458-335.12-88.892c0 0-45.224 5.756-39.894 42.513s47.939 330.786 47.939 330.786l554.874 627.683z" />
<glyph unicode="&#xe919;" d="M133.015 30.108l23.295 206.879 178.894-145.817z" />
<glyph unicode="&#xe91a;" glyph-name="Entertainment" d="M542.137 812.321v0c-5.839-0.291-11.286-3.019-15.024-7.512-22.285-26.794-42.493-55.905-60.134-86.637h-0.041c-23.573-41.507-41.9-85.372-54.749-129.788-39.227-17.076-81.185-29.259-124.639-35.604-85.095-12.223-171.469-2.027-247.686 29.030-13.488 5.495-28.321-4.142-28.782-18.699-1.088-34.826 0.941-70.205 6.001-105.296 16.665-112.989 62.295-211.206 124.19-279.502 61.896-68.296 141.668-107.222 223.315-95.454 69.078 9.953 126.227 54.563 166.239 118.232 68.276-28.066 148.189-17.145 222.984 21.719 80.447 41.805 156.522 115.901 211.966 213.038h0.041c19.105 33.601 34.988 68.78 47.193 104.637 4.771 14.038-6.182 28.445-20.984 27.6-86.457-4.957-175.918 16.313-254.954 60.834h-0.040c-74.033 41.941-135.251 102.302-175.712 172.944-3.91 6.831-11.328 10.887-19.188 10.495v-0.036zM544.136 756.304c43.7-65.937 101.262-123.591 172.325-163.838h0.040c75.86-42.741 160.56-64.534 244.748-65.57-9.555-23.819-18.881-47.772-31.763-70.425-51.79-90.74-122.933-159.209-194.94-196.622-64.62-33.58-128.091-40.526-181.468-20.943 40.538 85.536 55.107 192.615 39.273 301.343-5.648 38.27-14.813 75.847-27.312 111.664-3.048 8.686-11.421 14.355-20.616 13.961-0.516 0-1.034 0-1.551 0.208v0c-5.258 0.21-10.388-1.632-14.372-5.061-7.211-6.237-14.725-12.147-22.371-17.924-10.99-6.583-22.395-12.653-33.272-19.434 9.78 24.846 17.017 50.276 30.457 73.941 12.002 20.896 26.488 39.833 40.824 58.829v-0.129zM530.010 607.775c7.073-24.137 14.298-48.297 18.045-73.53 15.556-105.494 0.661-204.79-34.701-278.848-35.362-74.062-89.749-121.897-154.727-131.263s-131.058 21.117-186.368 82.144c-55.301 61.025-98.256 152.027-113.821 257.497-3.439 23.867-3.645 47.703-4.041 71.492 75.8-25.375 157.514-35.699 239.155-23.967h0.041c88.365 16.031 165.909 44.423 236.417 96.475v0zM642.621 587.029c-17.859 18.618-48.911 20.631-74.891 9.171-11.192-4.626-16.635-16.53-12.157-26.593 4.478-10.061 17.179-14.463 28.369-9.839 0.355 0.146 0.704 0.301 1.052 0.465 13.575 5.987 19.54 4.397 24.273-0.542 4.731-4.936 8.263-18.396 2.833-36.086-3.306-10.791 3.411-21.556 15.002-24.056 11.591-2.495 23.669 4.222 26.975 15.012v0c8.216 26.77 6.404 53.842-11.453 72.461v0.007zM796.768 513.271c-28.78 15.054-63.992 1.924-89.52-22.53-8.574-8.059-8.836-20.903-0.578-28.689 8.257-7.784 21.903-7.566 30.477 0.492 0.108 0.1 0.213 0.2 0.318 0.303 16.816 16.114 31.713 17.749 37.346 14.804 5.635-2.948 11.744-15.568 5.342-37.129-3.377-10.853 3.139-21.91 14.556-24.702 11.415-2.786 23.407 3.75 26.784 14.599 0.052 0.163 0.1 0.327 0.146 0.49 9.719 32.725 3.91 67.307-24.872 82.361v0zM565.446 307.609c-10.808 4.502-14.575 16.069-8.412 25.836 6.161 9.763 19.921 14.024 30.729 9.521 0.299-0.124 0.594-0.255 0.885-0.392 46.739-20.724 102.176-17.382 139.865 5.758 10.323 6.748 24.323 5.433 31.272-2.938 6.948-8.374 4.213-20.63-6.11-27.378-0.408-0.265-0.824-0.521-1.251-0.766-54.432-33.424-127.257-36.124-186.977-9.641v0zM209.547 456.583c-29.309-3.483-48.414-28.863-52.224-58.451-1.435-11.274 6.777-22.072 18.343-24.122 11.534-2.041 22.053 5.387 23.531 16.618 2.115 16.42 10.641 23.92 17.72 24.762 7.079 0.836 17.84-4.368 25.619-19.613 5.409-10.433 18.162-15.050 28.486-10.311 10.238 4.697 14.259 16.842 9.016 27.242-14.021 27.474-41.184 47.355-70.491 43.874v0zM397.636 477.459c-29.309-3.482-48.372-28.863-52.183-58.447-1.656-11.231 6.354-22.173 17.89-24.433 11.538-2.263 22.23 5.008 23.884 16.241 0.036 0.241 0.065 0.482 0.095 0.728 2.113 16.417 10.608 23.874 17.685 24.715 7.079 0.836 17.871-4.327 25.65-19.566 5.139-10.552 17.785-15.482 28.243-11.016 10.459 4.468 14.771 16.639 9.634 27.19-0.117 0.243-0.241 0.482-0.367 0.719-14.019 27.471-41.223 47.347-70.532 43.869v0zM350.411 187.039c-67.119-9.534-133.893 18.879-168.917 73.656-6.524 9.567-4.079 22.543 5.461 28.985s22.562 3.908 29.088-5.659c0.234-0.342 0.458-0.69 0.671-1.048 25.392-39.711 75.683-61.948 127.508-54.589 51.823 7.359 93.461 42.657 106.157 87.775 3.084 11.097 14.62 17.534 25.763 14.377 11.145-3.158 17.676-14.715 14.592-25.815-0.010-0.036-0.021-0.074-0.029-0.108-17.515-62.242-73.177-108.043-140.295-117.574z" />
<glyph unicode="&#xe91b;" glyph-name="Event" d="M605.694 721.201c-18.753 7.034-39.855 3.517-55.093-11.723l-3.517-4.689c-3.517-3.517-8.206-8.206-15.238-14.068-12.895-10.549-32.823-25.789-59.784-42.201-39.855-24.617-101.984-53.923-175.837-59.784h-162.944c-69.161 1.172-124.258-55.097-125.43-124.258 0-69.163 56.269-125.43 125.43-125.43l146.532-205.141c4.689-7.032 12.895-11.723 21.1-12.895 1.174 0 3.517 0 4.689 0 7.034 0 14.068 2.343 19.929 7.032l66.818 51.578c14.068 10.549 16.412 30.48 5.862 44.546l-80.884 113.707c64.473-9.379 118.396-35.167 153.563-57.44 26.961-16.412 46.891-31.649 59.784-42.203 7.032-5.86 11.723-10.549 15.238-12.895l4.691-3.517c9.377-9.377 22.272-15.238 35.168-15.238 7.032 0 12.895 1.174 18.755 3.517 18.753 8.206 30.478 25.789 30.478 45.718v418.493c1.172 19.927-10.551 38.684-29.31 46.889zM360.698 206.586l-52.75-41.029-124.26 173.493h82.058l94.952-132.464zM296.225 381.251c-1.174 0-2.343 0-3.517 0h-159.425c-45.718 0-84.401 37.51-84.401 84.401 0 45.718 37.512 84.401 84.401 84.401h158.253c1.172 0 2.343 0 3.515 0 39.857 2.345 77.369 11.723 110.192 23.446v-215.694c-31.651 10.549-69.163 19.929-109.019 23.446zM595.147 254.647c0-3.515-2.343-7.032-5.862-8.206-3.515-1.172-7.034 0-9.377 1.174 0 1.172-1.174 1.172-1.174 1.172-1.172 1.174-2.343 2.345-4.689 4.691-3.517 3.515-9.377 8.206-17.583 15.238-14.068 11.723-36.34 28.134-64.473 45.718-12.896 8.206-28.134 16.412-45.72 24.617v250.858c17.585 8.206 32.823 16.412 45.72 24.617 28.132 17.583 50.406 33.995 64.473 45.718 7.032 5.862 12.895 11.723 17.583 15.24l5.862 5.86c2.343 2.345 5.862 3.517 9.377 2.345 3.517-1.174 5.862-4.689 5.862-8.206v-420.836zM998.398 485.579h-175.839c-11.719 0-21.1-9.377-21.1-21.1s9.381-21.1 21.1-21.1h175.839c11.723 0 21.1 9.377 21.1 21.1 0 12.896-9.377 21.1-21.1 21.1zM770.983 593.426c4.689 0 10.549 2.345 14.066 5.862l139.5 139.496c8.204 8.206 8.204 21.1 0 29.306-8.208 8.206-21.104 8.206-29.308 0l-138.329-139.496c-8.204-8.206-8.204-21.1 0-29.306 3.519-3.517 9.381-5.862 14.070-5.862zM785.048 330.843c-8.204 8.206-21.1 8.206-29.304 0-8.208-8.206-8.208-21.1 0-29.306l139.496-139.498c3.515-3.515 9.377-5.86 14.066-5.86s10.549 2.343 14.070 5.86c8.204 8.206 8.204 21.102 0 29.308l-138.329 139.496z" />
<glyph unicode="&#xe91c;" glyph-name="Follow" d="M1017.153 734.892l-49.485 49.485-574.702-575.826-334.024 334.024-49.486-49.485 383.511-383.511z" />
<glyph unicode="&#xe91d;" glyph-name="Fullscreen" horiz-adv-x="1022" d="M1017.118 924.148v-957.6c0-14.197-11.043-25.24-25.24-25.24h-460.658c-14.197 0-25.24 11.043-25.24 25.24s11.043 25.24 25.24 25.24h436.995v907.117h-907.117v-433.838c0-14.197-11.043-25.24-25.243-25.24-14.197 0-25.24 11.043-25.24 25.24v459.081c0 14.197 11.043 25.24 25.24 25.24h957.6c12.62 0 23.663-11.043 23.663-25.24zM10.611 318.351c0 14.197 11.043 25.24 25.24 25.24h351.805c14.197 0 25.24-11.043 25.24-25.24v-351.802c0-14.197-11.043-25.24-25.24-25.24h-351.802c-14.197 0-25.24 11.043-25.24 25.24v351.802zM61.097-6.632h301.319v299.74h-301.319v-299.74zM469.693 401.964c4.733-4.731 11.043-7.887 17.356-7.887 6.31 0 12.62 3.154 17.353 7.887l285.543 285.545v-164.070c0-14.197 11.043-25.24 25.24-25.24s25.24 11.043 25.24 25.24v224.016c0 14.197-11.043 25.24-25.24 25.24h-225.596c-14.197 0-25.24-11.043-25.24-25.24s11.043-25.24 25.24-25.24h164.070l-283.966-285.545c-11.043-9.466-11.043-25.24 0-34.707z" />
<glyph unicode="&#xe91e;" glyph-name="globe" d="M46.727 664.355v-15.966c5.595 13.047 11.743 25.741 18.333 38.191l-18.333-22.225zM363.978 701.042l-4.6-4.865 6.192-5.175 6.258 5.175zM86.334 712.409l-0.819 9.288c-7.276-11.433-14.109-23.109-20.456-35.117l6.855 8.315 14.418 17.514zM247.48 832.821v8.005h-18.311l-0.973-3.848h-11.168v-11.146h25.188zM1016.127 565.681l-1.614-1.88 3.627-6.811c-0.663 2.919-1.327 5.816-2.012 8.691zM332.244 682.51l9.575 1.791 7.652 4.931v10.195h-17.205c-0.022-1.57-0.022-16.917-0.022-16.917zM985.919 655.288c-3.782 8.492-7.762 16.873-12.008 25.122l-3.229-3.649v-22.579l9.929 1.349 5.307-0.243zM247.060 801.883c0 0 0.951 11.168 0 11.168s-12.141-1.902-12.141-1.902l-17.89-5.108 4.799-5.75 25.232 1.592zM905.379 755.288l10.018 14.993c-8.027 9.907-16.497 19.483-25.277 28.771l-0.088-24.945-22.004-11.146 2.189-7.32 35.162-0.354zM289.807 755.93l-12.141 2.919-13.379-6.413 8.249-16.94 13.114 4.135zM340.869 715.726v-12.119l10.526 2.521zM310.838 720.193l-14.662-6.059-2.875-7.364 11.499-3.162h30.606v10.526h-4.445v6.059zM291.355 673.952l9-4.821 21.672 30.297h-16.917l-11.809-12.76zM353.629 688.26v-9.222l4.467-6.413h16.276v9.885l-19.483 5.75zM332.244 673.598l-7.674-0.641-2.543-11.168h16.276l7.364 7.342v9.907l-11.831-1.614zM968.56 632.444l-13.379 14.684-2.543 23.596-13.689-7.475-7.386-28.903-19.792 21.075-0.818 19.903-19.085 16.453-7.054 6.988h-22.181l7.032-19.77 26.648-14.861 4.622-4.931-5.75-2.897 0.221-15.635-13.003-5.418-11.057 2.433-6.944 9.841 18.001-0.995 4.887 6.568-39.96 26.957-3.052 11.522-16.254-14.684-16.453 3.383-25.055-32.596-4.954-12.76-16.055-1.46-23.706-0.133-14.175 6.612-4.157 28.174 5.064 13.401 24.149 5.285 26.294-5.285 3.229 14.573-11.212 2.632 3.87 22.667 26.449 4.157 18.532 26.161 19.085 3.229 17.271-2.565h6.347l-3.472 24.569-20.942-8.47-7.386 18.355-12.185 1.747-2.3 12.605 9.929 10.814 23.596 9.244 6.059 10.858c-67.050 59.111-149.713 100.907-240.846 118.532-2.079 0.376-4.113 0.752-6.17 1.106-9.421 1.703-18.974 2.853-28.594 4.025-20.478 2.499-41.199 4.246-62.384 4.246-112.34 0-216.277-36.466-300.82-98.055l4.357 0.022 21.451 0.177 11.522-6.369 21.672-4.666 1.681-8.536 34.498-1.261-4.688 11.035-30.628 0.862 7.209 6.811-2.521 8.072h-27.665l30.186 22.579h28.948l13.6-18.753 22.579-1.261 13.6 13.202 10.217-5.108-18.731-18.288c0 0-25.94-0.442-24.679-0.442 1.305 0 2.167-17.868 2.167-17.868l31.446 0.862 3.406 8.492 21.694 1.305 2.543 12.716-12.738 2.167 4.246 11.499 9.752 2.985 34.034-1.681-18.753-17.050 3.030-13.18 19.571-2.985-1.283 23.795 18.731 9.797 33.193 3.848 48.098-21.296v-18.311l15.281-3.804-7.674-14.463h-21.65l-6.457-16.586-49.624 11.676 39.010 20.765-14.861 12.627-33.614-4.246-2.985-3.052-0.111 0.044-0.442-0.641-9.686-10.040-15.989-1.371 1.283-7.983 5.595-2.3-0.221-2.632-13.025-1.858-0.951-7.563-12.45-0.641-2.256 14.993-22.357-6.789-45.622-26.736 5.086-18.797 12.738-8.315 25.542-3.516v-29.036l11.765 1.924 10.88 22.645 27.156 8.602v34.808l15.104 11.389 36.489-8.625-2.587-22.977h9.797l26.802 13.18 1.305-30.186 19.549-11.92-0.818-17.89-18.731-6.369 1.283-5.927 22.534-10.283-0.42-12.318-6.568-0.553c0 0.199-0.044 0.354-0.044 0.354l-28.483 8.757-1.216 9.155 8.315 5.705v8.315l-8.934 2.234-2.211-7.674-15.723-2.41-1.548 0.531v-0.796l-5.418-0.818-4.423 8.934-5.131 2.234h-11.168l-5.064-4.157v-9.244l9.553-3.207 9.465-1.305-2.123-0.951-8.647-9.531-3.759 4.777-8.337 2.189-22.667-21.34 2.985-2.433-33.503-18.51-31.513-32.773-2.145-14.573-31.557-20.743-15.613-15.745 1.725-31.491-21.694 10.128 0.155 18.399-60.372-0.022-31.292-15.834-13.556-25.033-5.396-19.836 8.801-19.262 24.613-3.008 39.164 26.205 3.406-12.981-11.942-22.579 29.832-5.064 2.985-46.020 3.759-0.641 0.354-0.044 36.754-6.258 25.918 29.987 31.513-6.391 11.035-15.392 30.23 1.791 0.818 8.912 16.63-8.050 18.709-29.323 32.331-0.464 11.942-20.854 1.681-25.476 35.759-13.644 45.091-0.442 13.202-21.65 19.969-6.435-3.804-17.89-21.937-27.842-6.391-61.61-19.814-15.657-29.301 0.907-9.819-17.050 7.276-31.911-31.911-40.867-10.239-18.753-30.429-14.595-19.969-3.074-0.862-8.492 14.065-4.047-1.747-9.111-12.561-12.096 7.652-9.642 15.126-0.442-0.862-11.676-4.025-11.522-1.261-9.332 22.38-18.886-3.008-9.752-30.473 0.531-30.319 26.493-23.596 41.508 3.295 40.071-17.89 23.817 7.231 40.403-10.593 3.008v87.639c0 0-29.81 22.579-31.491 22.579-1.725 0-15.767 3.804-15.767 3.804l-2.963 16.608-38.744 48.474 3.826 17.448 1.305 28.505 26.78 18.753-3.804 31.911-39.142 2.941-30.672 34.918-21.672 5.949-14.043 2.565 1.681 12.738-17.89 2.565v-7.231l-44.671 11.057-18.001 27.51 6.236 11.3-7.386 0.088-2.167 7.165 5.241 2.654-22.888 33.415-4.887 30.23h-11.499l3.848-29.346 19.571-30.208-2.145-11.942-16.608 2.543-20.389 34.808v40.513l-21.296 10.239v29.147c-11.986-28.107-21.429-57.585-28.24-87.993l1.194 0.243 7.032 1.415 4.157-19.969 8.757-14.175 5.838-6.679 10.593-4.157-9.974-11.853-19.306-1.88h-14.595l1.636 17.249 12.096 2.499-1.017 8.116-10.018 6.325-0.818 0.575c-5.219-29.279-8.116-59.355-8.116-90.071 0-0.907 0.066-1.813 0.066-2.72 1.482-281.072 230.541-509.313 511.945-509.313 160.041 0 303.142 73.884 397.105 189.276h-16.873v34.034l-19.571 26.294v40.978l-14.927 14.839-1.283 17.050 18.886 36.179-35.891 63.379 4.224 43.012-32.309 3.317-11.92 11.92h-21.716l-11.057-10.217h-38.236l-1.327-3.383h-21.296l-48.895 55.75 0.398 43.41 8.072 2.985 3.030 16.608h-11.499l-4.71 17.448 56.59 40.845v28.925l27.731 15.392 11.19-1.15h22.8l17.868 9.598 57.453 4.489v-29.368l45.334-11.522 8.912-6.369h8.337v15.966l26.161 2.543 24.879-18.51h40.845l2.853 2.609c-4.047 13.777-8.669 27.289-13.844 40.602l-26.648-0.487z" />
<glyph unicode="&#xe91f;" glyph-name="Image" d="M721.418-56.84h-411.666c-162.905 0-295.429 132.528-295.429 295.429v411.691c0 162.905 132.528 295.407 295.429 295.407h411.666c162.905 0 295.425-132.524 295.425-295.407v-411.688c0-162.905-132.52-295.432-295.425-295.432zM309.752 888.527c-131.376 0-238.247-106.871-238.247-238.247v-411.688c0-131.372 106.871-238.247 238.247-238.247h411.666c131.372 0 238.244 106.896 238.244 238.247v411.688c0 131.376-106.893 238.247-238.244 238.247h-411.666zM973.67 194.139h-922.54c-16.458 0-29.805 13.329-29.805 29.784s13.329 29.784 29.805 29.784h922.518c16.458 0 29.784-13.329 29.784-29.784s-13.304-29.784-29.762-29.784zM922.086 362.791c-14.008 24.759-57.457 98.188-112.958 159.733 4.917 17.309 7.897 35.423 7.897 54.289 0 111.191-90.456 201.651-201.69 201.651-111.173 0-201.629-90.456-201.629-201.651 0-50.498 18.883-96.482 49.668-131.887-13.218-14.924-25.975-25.674-37.487-27.187-2.983-0.404-12.177-1.595-28.932 12.027-12.027 9.792-24.483 23.142-36.536 36.064-32.208 34.533-68.594 73.619-117.75 65.529-46.578-7.75-87.691-56.477-133.204-158.030-6.731-15.031-0.021-32.68 15.006-39.407 15.031-6.749 32.659-0.021 39.386 14.988 47.604 106.209 77.814 121.859 88.585 123.648 17.413 2.811 41.346-22.652 64.402-47.39 13.411-14.37 27.269-29.229 42.494-41.621 24.355-19.841 49.393-28.271 74.362-24.909 47.815 6.323 80.836 52.053 115.79 100.505 29.251 40.513 59.503 82.431 94.758 95.738 56.395 21.354 168.248-119.496 225.963-221.428 5.493-9.685 15.564-15.135 25.975-15.135 4.96 0 10.007 1.255 14.649 3.873 14.277 8.075 19.344 26.254 11.251 40.602zM623.166 610.619c-52.010-19.652-89.201-71.169-122.028-116.62-0.15-0.193-0.297-0.404-0.426-0.597-17.138 23.439-27.398 52.2-27.398 83.389 0 78.321 63.716 142.041 142.019 142.041 78.343 0 142.084-63.716 142.084-142.041 0-1.491-0.275-2.897-0.318-4.367-43.238 34.855-89.948 54.821-133.933 38.195z" />
<glyph unicode="&#xe920;" glyph-name="Job" d="M533.158 70.97c0 10.278 8.256 18.579 18.557 18.579h63.836c26.822-18.028 57.132-30.501 89.332-36.316-1.338-0.291-2.564-0.788-3.971-0.788h-149.217c-10.278-0.032-18.536 8.302-18.536 18.525zM487.781 219.55h33.087c-3.531 12.203-6.106 24.563-7.58 37.147h-25.507c-10.259 0-18.568-8.322-18.568-18.579s8.309-18.568 18.568-18.568zM351.122 688.602c-22.787 15.307-38.474 45.638-38.474 72.889 0 38.474 31.164 69.708 69.672 69.708 38.51 0 69.674-31.232 69.674-69.708 0-27.251-15.711-57.584-38.542-72.889 54.614-13.845 95.056-61.295 95.056-96.394 0-41.512-252.352-41.512-252.352 0-0.034 35.099 40.452 82.526 94.966 96.394zM346.915 596.38l35.371-35.326 35.415 35.326-29.77 71.967h0.282l11.561 13.216c-5.634-1.969-11.349-3.193-17.489-3.193-6.061 0-11.844 1.226-17.465 3.261l11.529-13.282h0.302l-29.736-71.969zM813.268-19.248l0.057 0.077-0.879 1.551c-0.472 0-0.854-0.145-1.294-0.145h-646.767c-33.448 0-60.643 27.206-60.643 60.643v808.541c0 33.414 27.183 60.618 60.643 60.618h646.758c33.435 0 60.643-27.206 60.643-60.618v-370.059c14.497-9.156 28.207-19.558 40.454-31.75v401.809c0 55.727-45.336 101.017-101.085 101.017h-646.769c-55.763 0-101.085-45.29-101.085-101.017v-808.554c0-55.704 45.322-101.017 101.085-101.017h646.758c7.884 0 15.521 1.145 22.921 2.877l-20.796 36.027zM274.668 304.17h238.171c1.135 12.439 3.204 24.822 6.333 37.159h-244.481c-10.257 0-18.536-8.29-18.536-18.545-0.032-10.314 8.254-18.613 18.513-18.613zM274.668 473.455h333.743c6.592 4.791 13.463 9.324 20.639 13.473 18.198 10.505 37.744 18.4 57.899 23.696h-412.281c-10.259 0-18.545-8.322-18.545-18.602 0-10.289 8.286-18.566 18.545-18.566zM274.668 388.835h262.012c6.524 13.148 14.226 25.553 23.012 37.159h-285.023c-10.259 0-18.545-8.345-18.545-18.591s8.286-18.568 18.545-18.568zM909.089 377.554c51.78-89.681 20.941-204.823-68.795-256.546-89.634-51.748-204.757-21.066-256.523 68.752-51.791 89.645-20.941 204.743 68.661 256.546 89.757 51.778 204.891 20.962 256.657-68.752zM882.199 361.976c-43.265 74.835-139.323 100.567-214.146 57.437-74.869-43.288-100.669-139.232-57.314-214.18 43.153-74.858 139.166-100.645 214.058-57.403 74.858 43.322 100.556 139.302 57.403 214.146zM887.542 132.546l-80.751-46.63 62.182-107.63 80.728 46.583-62.16 107.677zM958.101 10.195l-80.796-46.605c12.934-22.36 41.453-29.94 63.734-17.119 22.316 12.877 29.974 41.444 17.062 63.724z" />
<glyph unicode="&#xe921;" glyph-name="Link" d="M713.031 266.788l-265.153-265.155-190.219 51.878-51.88 191.662 263.715 263.713 96.549-25.939 44.676 44.674-126.814 34.584-30.262 7.207-21.618-21.615-265.153-263.715-21.615-23.056 8.645-30.262 50.437-191.66 8.647-30.262 30.262-8.647 191.662-50.435 30.262-8.65 21.613 23.058 263.715 263.713 23.056 21.615-8.647 30.262-33.146 126.814-44.671-44.674zM871.547 663.079l-50.437 191.66-8.647 30.262-30.262 8.647-191.657 50.437-30.262 8.645-21.618-23.056-263.713-263.713-23.056-21.618 8.645-30.262 33.146-126.811 44.674 44.671-25.941 95.111 265.155 265.155 190.217-51.88 51.88-191.66-263.715-263.713-96.549 25.939-44.671-44.674 126.809-34.584 30.262-7.207 21.618 21.615 265.153 263.713 21.618 23.058z" />
<glyph unicode="&#xe922;" glyph-name="Location" d="M851.679 582.668c0-46.715-9.469-91.221-26.591-131.699-51.361-121.439-311.753-458.306-311.753-458.306s-260.392 336.868-311.755 458.306c-17.12 40.478-26.587 84.982-26.587 131.699 0 186.862 151.481 338.344 338.342 338.344s338.344-151.482 338.344-338.344zM513.335 750.55c-83.453 0-151.105-67.652-151.105-151.105s67.652-151.105 151.105-151.105 151.103 67.654 151.103 151.105-67.65 151.105-151.103 151.105z" />
<glyph unicode="&#xe923;" glyph-name="lock" d="M356.557 731.287c0 85.699 69.72 155.419 155.419 155.419s155.419-69.72 155.419-155.419v-123.264h64.311v123.264c0 121.16-98.57 219.732-219.73 219.732s-219.73-98.57-219.73-219.732v-123.264h64.311v123.264zM174.341 543.713v-600.242h675.273v600.242h-675.273zM485.293 126.686l-126.067 126.067 45.474 45.474 80.593-80.59 120.121 120.121 45.474-45.474-165.595-165.599z" />
<glyph unicode="&#xe924;" glyph-name="Media" d="M910.181 454.044v-483.372h-484.498v33.801l292.953 206.195-33.801 23.662-259.151 185.912v33.801h484.498zM939.477 484.467h-543.089v-78.873l272.672-193.799-272.672-191.547v-79.999h543.089v544.217zM114.703 404.466l332.387-191.547-332.387-191.545v383.091zM85.407 456.296v-485.626l422.528 243.377-422.528 242.249zM396.388 921.641c98.026 0 178.025-79.999 178.025-178.026s-79.999-178.025-178.025-178.025c-98.028 0-178.026 79.999-178.026 178.025 0 98.028 78.873 178.026 178.026 178.026zM396.388 954.316c-116.055 0-210.7-94.645-210.7-210.7 0-116.053 94.645-210.7 210.7-210.7 116.053 0 210.7 94.647 210.7 210.7 0.002 116.055-94.645 210.7-210.7 210.7v0zM799.761 783.052c60.846 0 111.55-49.576 111.55-111.548 0-60.844-49.576-111.548-111.55-111.548-60.844 0-111.548 49.576-111.548 111.548s50.704 111.548 111.548 111.548zM799.761 815.728c-78.871 0-144.221-64.224-144.221-144.223s64.224-144.223 144.221-144.223c78.873 0 144.223 64.224 144.223 144.223s-64.224 144.223-144.223 144.223v0z" />
<glyph unicode="&#xe925;" glyph-name="Meetup" d="M145.803 952.236v-838.035h335.214v87.925h-244.541v662.185h549.529v-662.185h-34.345v-87.925h125.019v838.035zM331.269 762.646h359.943v-37.092h-359.943v37.092zM331.269 649.994h204.7v-37.092h-204.7v37.092zM534.594-12.191c0-26.103 20.607-46.709 46.709-46.709h72.814c26.103 0 46.709 20.607 46.709 46.709v89.298h-164.86v-89.298h-1.373zM534.594 541.462v-427.261h164.86v427.261l-82.431 105.786-82.429-105.786zM665.108 474.144h-94.794v54.953l17.861 21.982 30.224-30.224 30.226 30.224 17.861-21.982v-54.953h-1.377z" />
<glyph unicode="&#xe926;" glyph-name="Message" d="M168.809 198.461c-12.319 12.319-12.319 32.312 0 44.629l89.296 89.298c12.324 12.36 32.31 12.36 44.634 0 12.324-12.316 12.324-32.308 0-44.626l-89.296-89.301c-12.326-12.326-32.31-12.326-44.634 0v0zM811.030 198.461l-89.296 89.301c-12.316 12.316-12.316 32.308 0 44.626 12.331 12.36 32.307 12.36 44.64 0l89.3-89.298c12.314-12.316 12.314-32.308 0-44.629-12.333-12.326-32.312-12.326-44.643 0v0zM981.026 673.574l-379.493-347.924c-49.315-49.314-129.272-49.314-178.589 0l-297.695 297.702-0.231-0.079c-5.757 7.201-13.968 13.336-23.17 13.336-17.448 0-31.579-14.138-31.579-31.57v-441.972c0-34.897 28.264-63.149 63.147-63.149h757.646c34.885 0 63.137 28.252 63.137 63.149v378.818c0 17.451 14.136 31.57 31.587 31.57 17.436 0 31.568-14.123 31.568-31.57v-378.82c0-69.747-56.556-126.307-126.293-126.307h-757.646c-69.744 0.005-126.293 56.563-126.293 126.31v441.969c0 52.288 42.421 94.68 94.723 94.68 24.373 0 46.367-11.147 63.144-27.318v0.54l302.615-302.622c24.641-24.683 64.617-24.683 89.267 0l379.475 347.924c12.365 12.317 18.296 28.488 18.222 44.626h-0.372c0 34.883-28.252 31.57-63.137 31.57h-662.953c-17.41 0-31.575 14.135-31.575 31.586 0 17.432 14.164 31.57 31.575 31.57h662.955c57.912 0 106.637-17.341 121.498-63.152v0c10.775-41.886 1.248-88.095-31.536-120.866v0zM101.848 794.439c-17.448 0-31.579 14.135-31.579 31.586 0 17.432 14.129 31.57 31.579 31.57 17.442 0 31.57-14.135 31.57-31.57 0-17.449-14.128-31.586-31.57-31.586v0z" />
<glyph unicode="&#xe927;" glyph-name="More" d="M119.064 331.088c63.787 0 115.498 51.711 115.498 115.5 0 63.785-51.711 115.497-115.498 115.497s-115.497-51.711-115.497-115.497c-0.002-63.789 51.709-115.5 115.497-115.5v0zM511.754 331.088c63.789 0 115.498 51.711 115.498 115.5 0 63.785-51.709 115.497-115.498 115.497-63.787 0-115.497-51.711-115.497-115.497 0-63.789 51.709-115.5 115.497-115.5v0zM904.447 331.088c63.785 0 115.497 51.711 115.497 115.5 0 63.785-51.709 115.497-115.497 115.497-63.789 0-115.497-51.711-115.497-115.497 0-63.789 51.708-115.5 115.497-115.5v0z" />
<glyph unicode="&#xe928;" glyph-name="Photo" d="M559.284 517.569c-73.169 0-132.723-59.255-132.723-132.127 0-72.806 59.535-132.102 132.723-132.102 73.265 0 132.825 59.296 132.811 132.102 0 72.856-59.544 132.127-132.811 132.127zM559.284 192.418c-106.965 0-194.048 86.577-194.048 193.049 0 106.49 87.085 193.11 194.048 193.11 107.069 0 194.132-86.637 194.114-193.11 0-106.433-87.108-193.049-194.114-193.049zM559.284 616.661c-128.059 0-232.337-103.715-232.337-231.197 0-127.468 104.215-231.201 232.337-231.201 128.213 0 232.446 103.715 232.446 231.201 0 127.484-104.233 231.197-232.446 231.197zM559.284 93.276c-161.898 0-293.644 131.082-293.644 292.19 0 161.13 131.746 292.192 293.644 292.192 161.937 0 293.712-131.062 293.712-292.192 0-161.108-131.75-292.19-293.712-292.19zM255.336 770.816c-16.873 0-30.646 13.66-30.646 30.493v6.484c0 3.502-2.877 6.351-6.375 6.351h-49.381c-3.494 0-6.384-2.849-6.384-6.351v-6.482c0-16.833-13.695-30.493-30.634-30.493-16.898 0-30.632 13.66-30.657 30.493v6.482c0 37.095 30.364 67.326 67.699 67.326h49.383c37.286 0 67.65-30.228 67.65-67.326v-6.482c0.002-16.833-13.775-30.495-30.654-30.495zM925.159 20.84h-219.331c-16.898 0-30.632 13.64-30.632 30.495 0 16.81 13.734 30.47 30.632 30.47h219.333c20.75 0 37.603 16.767 37.603 37.368v532.627c0 20.621-16.853 37.368-37.603 37.368h-49.734c-16.894 0-30.63 13.681-30.63 30.493 0 16.816 13.695 30.468 30.63 30.468h49.734c54.546 0 98.873-44.114 98.873-98.329v-532.648c0-54.219-44.331-98.312-98.875-98.312zM333.523 689.15h-234.656c-20.765 0-37.624-16.773-37.624-37.347v-532.632c0-20.605 16.859-37.368 37.624-37.368h49.736c16.939 0 30.652-13.699 30.636-30.507 0-16.853-13.697-30.497-30.636-30.497h-49.736c-54.561 0-98.886 44.091-98.886 98.355v532.627c0 54.233 44.329 98.329 98.886 98.329h234.656c16.935 0 30.648-13.664 30.648-30.468 0-16.814-13.715-30.493-30.648-30.493z" />
<glyph unicode="&#xe929;" glyph-name="Post" d="M675.245 21.252l-82.781 82.766c8.482 11.64 17.936 23.342 23.754 29.134l206.584 206.52 90.363-90.346-206.496-206.449c-3.615-3.437-16.141-11.893-31.424-21.624zM1003.533 294.505c24.969 24.96 24.969 65.411 0 90.348l-45.174 45.17c-12.486 12.483-28.835 18.715-45.181 18.715-16.354 0-32.704-6.23-45.185-18.715l-274.357-274.284c-12.47-12.479-50.633-60.738-50.65-77.092l-31.961-141.031 141.031 31.952c0 0 64.658 38.171 77.135 50.657l274.342 274.28zM968.281 203.094l-45.908-45.88c26.907-42.463 35.608-101.453 36.106-134.090 0.097-5.68-2.117-11.234-6.084-15.253-4.053-4.12-9.459-6.367-15.197-6.367h-170.561l-63.894-63.887h234.447c22.839 0 44.689 9.169 60.691 25.39 16.006 16.285 24.838 38.311 24.497 61.118-0.307 19.596-4.839 111.876-54.096 178.97zM70.139 7.871c-3.978 4.019-6.191 9.575-6.138 15.227 0.185 10.729 3.143 106.29 53.568 156.734 23.266 23.266 71.981 48.482 143.646 84.344 76.476 38.21 118.887 60.996 138.425 79.481l43.094 40.743-37.439 46.007c-58.971 72.457-92.806 152.462-92.806 219.484 0 51.7 0 110.283 24.464 158.741 29.275 57.958 87.901 87.343 174.308 87.343 86.385 0 145.041-29.385 174.297-87.33 24.458-48.482 24.458-107.063 24.458-158.763 0-67.017-33.831-147.014-92.823-219.484l-37.441-46.009 43.12-40.773c11.674-11.028 31.789-23.702 62.29-40.239l47.198 47.201c-28.872 15.147-56.069 30.45-65.594 39.468 67.809 83.339 107.149 177.442 107.149 259.83 0 55.904 0 125.488-31.302 187.536-28.208 55.867-91.237 122.457-231.351 122.457-140.129 0-203.145-66.59-231.34-122.449-31.334-62.050-31.334-131.609-31.334-187.529 0-82.403 39.335-176.506 107.153-259.828-16.197-15.319-82.963-48.695-123.090-68.733-79.586-39.805-130.072-66.109-160.255-96.333-66.861-66.843-71.914-179.071-72.257-200.899-0.343-22.781 8.458-44.798 24.477-61.075 16-16.214 37.867-25.407 60.691-25.407h361.811v63.894h-361.807c-5.655-0.006-11.197 2.308-15.169 6.361z" />
<glyph unicode="&#xe92a;" glyph-name="Question" d="M789.082 459.848c-12.057-5.925-24.095-11.839-36.143-11.839s-24.097 5.917-30.12 11.839c-6.021 5.921-12.046 17.754-12.046 29.6s6.021 23.681 12.046 29.6c18.074 17.766 48.185 17.766 66.263 0 6.017-5.921 12.044-17.756 12.044-29.6s-6.025-23.685-12.044-29.6zM548.139 459.848c-12.050-5.925-24.095-11.839-36.139-11.839-12.057 0-24.101 5.917-30.12 11.839-6.023 5.921-12.048 17.754-12.048 29.6s6.023 23.681 12.048 29.6c18.063 17.766 48.179 17.766 66.261 0 6.023-5.921 12.046-17.756 12.046-29.6s-6.023-23.685-12.048-29.6zM307.2 459.848c-12.048-5.925-24.097-11.839-36.143-11.839-12.050 0-24.095 5.917-30.12 11.839-6.023 5.921-12.044 17.754-12.044 29.6s6.019 23.681 12.044 29.6c18.070 17.766 48.194 17.766 66.263 0 6.023-5.921 12.044-17.756 12.044-29.6s-6.021-23.685-12.044-29.6zM813.177 767.693h-602.358c-84.33 0-150.583-65.118-150.583-147.997v-236.806c0-82.878 66.257-147.999 150.583-147.999h578.263c6.017 0 12.044 0 18.063-5.917l108.423-94.726c18.070-17.756 48.185-5.917 48.185 23.681l0.004 461.763c0.004 82.883-66.253 148.001-150.581 148.001zM933.642 69.126c-24.093 0-42.17 5.927-60.234 23.681l-96.383 82.881h-566.211c-114.442 0-210.819 94.722-210.819 207.2v236.8c0 112.482 96.381 207.2 210.819 207.2h602.356c114.446 0 210.817-94.718 210.817-207.2v-461.754c0-47.364-42.162-88.807-90.345-88.807z" />
<glyph unicode="&#xe92b;" glyph-name="quotes" d="M3.92 447.884v-418.131h418.131v418.131h-238.931c0 131.949 106.984 238.931 238.931 238.931v179.2c-230.948 0-418.131-187.194-418.131-418.131zM1019.367 686.817v179.198c-230.936 0-418.133-187.194-418.133-418.131v-418.131h418.133v418.131h-238.933c0 131.949 106.982 238.933 238.933 238.933z" />
<glyph unicode="&#xe92c;" glyph-name="search" d="M740.53 258.382l1.106 1.325c5.309 6.141 10.526 12.425 15.449 18.824l1.18 1.513 1.847 2.471c54.536 72.274 83.352 158.579 83.352 249.496 0 110.976-43.18 215.33-121.688 293.782-78.468 78.45-182.803 121.668-293.741 121.668-111.011 0-215.349-43.218-293.8-121.668-78.49-78.453-121.689-182.809-121.689-293.783 0-110.976 43.198-215.292 121.686-293.8 78.47-78.488 182.791-121.688 293.8-121.688 91.543 0 181.755 30.809 253.975 86.804 6.065 4.703 12.223 9.755 18.345 15.027l1.012 0.883 1.272 1.106c7.302 6.398 13.46 12.168 19.157 17.867 5.843 5.825 11.596 11.984 17.606 18.861l1.131 1.312zM657.138 302.889c-61.192-61.214-142.576-94.881-229.176-94.881-86.49 0-167.837 33.667-229.048 94.881-61.23 61.212-94.914 142.54-94.914 228.992 0 86.638 33.684 168.056 94.898 229.233 61.194 61.232 142.576 94.934 229.14 94.934 86.526 0 167.911-33.702 229.138-94.916 61.175-61.214 94.881-142.596 94.881-229.141-0.022-86.508-33.724-167.872-94.918-229.103zM1010.676 48.323l-12.208 12.134 0.057 0.018-134.448 134.448c-0.646 0.681-1.529 0.828-2.082 0.828s-1.365-0.147-2.083-0.867l-4.516-4.479-90.308-90.326c-0.552-0.589-0.85-1.29-0.85-2.155 0-0.683 0.315-1.385 0.85-1.974l146.559-146.614c0.534-0.554 1.272-0.793 2.14-0.793 0.477 0 1.307 0.129 1.936 0.776l47.495 47.438 47.403 47.476c0.572 0.552 0.83 1.257 0.83 2.066 0.037 0.823-0.241 1.526-0.775 2.023zM806.868 202.588l-31.030 31.012c-1.327-1.531-2.635-3.042-3.944-4.555l-0.46-0.535-0.868-1.012c-6.544-7.337-12.536-13.7-18.439-19.599-5.751-5.753-11.928-11.579-19.507-18.309l-0.166-0.201-0.756-0.631c-1.752-1.529-3.52-3.039-5.291-4.555l31.030-31.064 24.724 24.761 24.707 24.687z" />
<glyph unicode="&#xe92d;" glyph-name="Setting" d="M1016.597 404.358v84.124c0 25.237-16.824 42.061-42.061 42.061h-75.711c-8.411 0-16.824 8.413-21.030 16.824-8.416 29.443-21.030 58.887-37.858 88.33-4.205 8.413-4.205 16.824 4.205 25.237l54.68 54.68c16.826 16.824 16.826 42.061 0 58.885l-58.885 58.887c-16.822 16.826-42.061 16.826-58.885 0l-54.68-54.679c-8.415-8.413-16.822-8.413-25.239-4.206-25.237 16.826-54.679 29.443-88.327 37.856-8.415 4.206-16.826 8.413-16.826 21.030v75.709c0 25.239-16.822 42.063-42.059 42.063h-84.124c-25.24 0-42.061-16.824-42.061-42.063v-75.711c0-8.411-8.415-16.824-16.824-21.030-29.443-8.413-58.887-21.030-88.332-37.856-8.411-4.206-16.824-4.206-25.237 4.206l-54.679 54.679c-16.824 16.826-42.063 16.826-58.887 0l-58.887-58.887c-16.826-16.824-16.826-42.061 0-58.885l54.679-54.68c8.415-8.413 8.415-16.824 4.206-25.237-16.824-25.237-29.443-54.68-37.856-88.33-4.206-8.413-8.413-16.824-21.030-16.824h-75.711c-25.239 0-42.061-16.824-42.061-42.061v-84.122c0-25.239 16.822-42.063 42.061-42.063h75.711c8.415 0 16.824-8.413 21.030-16.822 8.413-29.443 21.030-58.887 37.856-88.332 4.206-8.411 4.206-16.824-4.206-25.235l-54.679-54.68c-16.824-16.824-16.824-42.063 0-58.887l58.887-58.885c16.824-16.824 42.061-16.824 58.887 0l54.679 54.68c8.413 8.415 16.826 8.415 25.237 4.205 25.239-16.822 54.682-29.442 88.332-37.856 8.411-4.205 16.824-8.415 16.824-21.030v-75.709c0-25.239 16.822-42.061 42.061-42.061h84.125c25.237 0 42.059 16.822 42.059 42.061v75.709c0 8.415 8.415 16.824 16.826 21.030 29.443 8.415 58.885 21.030 88.327 37.856 8.416 4.206 16.824 4.206 25.239-4.205l54.68-54.68c16.824-16.824 42.063-16.824 58.885 0l58.885 58.885c16.826 16.824 16.826 42.063 0 58.887l-54.68 54.68c-8.413 8.413-8.413 16.826-4.205 25.235 16.824 25.239 29.442 54.682 37.858 88.332 4.203 8.411 8.413 16.822 21.030 16.822h75.711c25.235 0 42.059 16.826 42.059 42.063zM511.858 236.112c-117.772 0-210.308 92.535-210.308 210.308s92.537 210.308 210.308 210.308c117.77 0 210.308-92.535 210.308-210.308s-92.537-210.308-210.308-210.308z" />
<glyph unicode="&#xe92e;" glyph-name="ShareaBlog" d="M572.985 508.455c42.577-42.579 63.831-98.401 63.808-154.199-62.243-93.416-62.243-217.93-62.243-217.93-249.124 0-435.969-186.834-435.969-186.834l-36.134 36.128 275.967 275.969c3.031-0.464 6.133-0.698 9.291-0.698 34.397 0 62.284 27.893 62.284 62.284 0 34.4-27.884 62.29-62.284 62.29-34.393 0-62.279-27.886-62.279-62.29 0-3.164 0.236-6.258 0.689-9.285l-275.963-275.98-36.138 36.145c0 0 186.849 186.836 186.849 435.956 0 0 124.557 0 217.981 62.288 55.79-0.002 111.577-21.281 154.141-63.844zM387.705 945.988c343.97 0 622.813-278.841 622.813-622.815h-93.429c0 71.51-13.98 140.833-41.555 206.034-26.658 63.035-64.845 119.651-113.492 168.305-48.65 48.645-105.279 86.832-168.303 113.49-65.21 27.577-134.528 41.563-206.034 41.563v93.422zM387.705 759.15c240.782 0 435.969-195.198 435.969-435.975h-93.424c0 91.501-35.63 177.513-100.326 242.216-64.701 64.699-150.723 100.328-242.218 100.328v93.431z" />
<glyph unicode="&#xe92f;" glyph-name="Share" d="M659.635 417.027c-9.526 0-19.050 3.808-26.669 11.427l-241.923 240.016c-15.238 15.238-15.238 38.099 0 53.338 15.242 15.238 38.096 15.238 53.338 0l240.016-240.016c15.242-15.238 15.242-38.096 0-53.338-5.712-7.619-15.235-11.427-24.762-11.427zM415.808 173.2c-9.523 0-19.046 3.808-26.666 11.43-15.242 15.238-15.242 38.096 0 53.334l243.824 243.827c15.238 15.238 38.096 15.238 53.338 0 15.238-15.238 15.238-38.099 0-53.338l-243.827-243.824c-7.619-7.622-17.146-11.43-26.669-11.43zM876.79-57.293h-714.333c-68.576 0-123.818 55.242-123.818 123.814v144.774c0 148.582 120.010 268.589 268.592 268.589h331.453c20.954 0 38.096-17.142 38.096-38.099 0-20.954-17.142-38.096-38.096-38.096h-329.549c-106.675 0-192.397-85.722-192.397-192.394v-144.774c0-26.669 20.957-47.622 47.626-47.622h712.429c24.765 0 45.718 20.954 45.718 45.718v720.051c0 49.53-40.003 89.533-89.533 89.533h-666.714c-34.288 0-62.861-28.573-62.861-62.864v-150.486c0-20.954-17.146-38.099-38.099-38.099s-38.096 17.146-38.096 38.102v150.483c0 76.198 62.864 139.059 139.056 139.059h666.714c91.437 0 165.728-74.291 165.728-165.728v-718.147c0-68.573-55.245-123.814-121.917-123.814z" />
<glyph unicode="&#xe930;" glyph-name="Tech" d="M221.628 241.066c-5.418 0-12.19 2.708-16.254 6.774l-193.707 193.707c-9.482 9.482-9.482 24.383 0 33.865l190.999 190.996c9.48 9.482 24.383 9.482 33.865 0s9.482-24.383 0-33.865l-174.742-174.742 177.45-177.45c9.482-9.482 9.482-24.385 0-33.867-5.418-2.708-12.19-5.418-17.611-5.418zM805.458 241.066c-5.42 0-12.192 2.708-16.257 6.774-9.482 9.482-9.482 24.383 0 33.865l174.742 174.742-177.45 176.098c-9.482 9.482-9.482 24.383 0 33.865s24.383 9.482 33.865 0l193.707-193.707c9.482-9.482 9.482-24.383 0-33.865l-190.999-190.999c-5.416-4.064-10.836-6.774-17.608-6.774zM348.961 178.756c-4.064 0-9.482 1.356-12.19 4.064-10.838 6.774-13.546 21.672-6.774 32.509l314.263 489.008c6.774 10.836 21.672 13.546 32.511 6.774 10.836-6.774 13.544-21.672 6.774-32.511l-314.266-489.008c-4.064-6.772-12.192-10.836-20.318-10.836z" />
<glyph unicode="&#xe931;" glyph-name="Time" d="M513.001 952.795c-280.059 0-507.438-227.378-507.438-507.438s227.378-507.438 507.438-507.438c280.061 0 507.438 227.376 507.438 507.436s-227.376 507.44-507.438 507.44zM487.682 906.792c-0.755-4.397-1.424-9.057-1.424-13.907 0-26.204 12.004-47.427 26.743-47.427s26.745 21.222 26.745 47.427c0 4.85-0.673 9.508-1.426 13.907 69.006-3.702 133.83-22.474 191.493-53.133-5.367-5.841-10.907-13.564-16.047-22.464-13.102-22.693-17.789-44.404-10.698-48.498s23.272 10.827 36.374 33.521c5.162 8.944 9.038 17.726 11.411 25.319 61.623-37.048 113.764-88.069 152.267-148.7-6.004-2.321-12.305-5.465-18.899-9.272-22.695-13.102-37.614-29.638-33.519-36.73 4.095-7.091 25.445-2.047 48.14 11.055 6.732 3.888 12.751 8.003 17.829 12.125 33.188-59.605 53.898-127.167 57.77-199.338-4.501 0.799-9.288 1.426-14.264 1.426-26.204 0-47.427-12.006-47.427-26.745 0-14.737 21.222-26.743 47.427-26.743 4.978 0 9.765 0.627 14.264 1.426-3.715-69.295-22.965-134.367-53.847-192.207-5.325 4.457-11.599 8.981-18.899 13.196-22.695 13.1-44.404 18.144-48.498 11.053s10.827-23.27 33.519-36.374c7.432-4.29 14.781-7.595 21.397-9.985-37.175-61.221-88.184-112.995-148.702-151.198-2.396 6.732-5.956 14.16-10.342 21.753-13.102 22.693-29.281 37.616-36.374 33.519-7.091-4.093-2.045-25.804 11.055-48.496 4.466-7.735 9.197-14.479 13.909-19.971-59.59-33.176-127.182-53.544-199.338-57.41 0.696 4.238 1.426 8.548 1.426 13.194 0 26.201-12.006 47.427-26.745 47.427s-26.743-21.224-26.743-47.427c0-4.65 0.73-8.958 1.424-13.194-72.607 3.893-140.547 24.579-200.407 58.125 4.712 5.492 9.443 12.234 13.907 19.969 13.102 22.693 18.148 44.047 11.057 48.14-7.093 4.095-23.273-10.827-36.374-33.519-4.382-7.589-7.589-15.027-9.985-21.753-60.448 38.3-111.274 90.262-148.345 151.554 6.416 2.371 13.534 5.5 20.684 9.627 22.693 13.104 37.614 29.281 33.519 36.374-4.096 7.093-25.806 2.404-48.498-10.696-7.091-4.096-13.305-8.503-18.542-12.838-30.424 57.362-49.351 121.84-53.133 190.422 2.872-0.309 5.879-0.707 8.914-0.707 26.204 0 47.070 12.006 47.070 26.745s-20.866 26.745-47.070 26.745c-3.034 0-6.042-0.41-8.914-0.707 3.941 71.45 24.345 138.419 57.055 197.555 4.967-3.98 10.976-8.015 17.473-11.768 22.695-13.102 44.047-17.789 48.14-10.698 4.095 7.091-10.827 23.272-33.519 36.374-6.439 3.717-12.659 6.611-18.542 8.914 38.339 60.749 90.393 111.841 151.909 149.058 2.381-7.524 6.316-16.137 11.411-24.962 13.102-22.693 29.281-37.616 36.374-33.519 7.091 4.095 2.404 25.447-10.698 48.14-5.139 8.902-10.679 16.626-16.047 22.466 57.941 31.014 123.107 50.12 192.561 53.847v-0.013zM393.542 704.246l75.243-242.842c-1.802-5.005-3.211-10.422-3.211-16.049 0-26.122 21.305-47.427 47.427-47.427 23.827 0 43.432 17.732 46.714 40.652l285.99 152.624-307.742-105.908c-6.694 4.194-14.431 6.751-22.821 7.131l-121.6 211.819z" />
<glyph unicode="&#xe932;" glyph-name="User" d="M514.974 863.793c-278.492 0-504.244-225.749-504.244-504.238 0-121.351 42.89-232.691 114.317-319.695 11.015 88.231 99.141 162.849 222.707 198.19 45.145-42.059 103.457-67.587 167.214-67.587 62.261 0 119.431 24.241 164.112 64.538 124.639-38.43 210.865-117.409 213.701-209.211 78.608 88.93 126.428 205.732 126.428 333.765 0 278.489-225.753 504.238-504.235 504.238zM514.974 230.177c-32.194 0-62.523 8.845-89.452 24.166-64.906 36.93-109.594 112.505-109.594 199.759 0 123.471 89.288 223.928 199.047 223.928 109.765 0 199.040-100.457 199.040-223.928 0-88.592-46.083-165.104-112.601-201.39-26.207-14.287-55.447-22.535-86.439-22.535z" />
</font>
</defs>
</svg>
